<svg id="Layer_1" data-name="Layer 1" xmlns="http://www.w3.org/2000/svg" viewBox="0 0 2125.33 1645.18"><title>logo</title><path d="M-393.38,686.45c0,7.68,0,15.36,0,23,0,6.75-1.08,13.38-1.95,20a16.41,16.41,0,0,1-7.31,11.85c-2.89,2-5.79,4.37-9.64,3.08a14.23,14.23,0,0,1-10-10.74,36,36,0,0,1-.56-4.76,174.3,174.3,0,0,1-1-24c.39-8.44-1.57-16.51-3.31-24.63a18.32,18.32,0,0,0-1.27-3.62,9.13,9.13,0,0,0-8.08-5.86,9.06,9.06,0,0,0-8.9,4.57c-2.53,4.09-4.81,8.41-5.51,13.2a95.51,95.51,0,0,1-3.33,13c-1,3.37-1.76,6.81-2.62,10.22q-1.91,7.43-3.79,14.86c-.63,2.47-1.23,5-1.82,7.44a16.21,16.21,0,0,1-.29,1.89c-3.87,10.2-4.74,21.19-8.39,31.45-3.32,9.34-5.86,18.93-8.62,28.46-2.49,8.59-5.65,17-8.67,25.42a56.49,56.49,0,0,1-7.72,14.32c-2.64,3.62-5.21,7.29-6.8,11.54a12.93,12.93,0,0,1-4.75,5.88c-2.31,1.71-4.48,3.61-6.74,5.4a8.23,8.23,0,0,1-7.26,1.54c-7.57-1.82-14.63-4.59-19.95-10.71a137.29,137.29,0,0,0-14.71-15.12c-1.46-1.24-2.83-2.6-4.33-3.79a20.48,20.48,0,0,0-3.24-2,7,7,0,0,0-9.65,3.45,38.32,38.32,0,0,0-2.92,11.1c-.43,4.13-.94,8.26-1.43,12.39-.18,1.59-.28,3.2-.59,4.76-1,5-2.65,10-2.94,15s-.79,10.17-1.48,15.24a79.75,79.75,0,0,0-.45,8.62c-.07,2.56,0,5.12,0,7.68.16,6.61-2.74,11.68-7.81,15.69a6.42,6.42,0,0,1-7.19.57,17.76,17.76,0,0,1-2.4-1.58c-6.33-5.24-7.1-3.16-8.47-13.9-1.78-14-3.55-27.93-3.6-42,0-5.75.23-11.51.57-17.25a24,24,0,0,0-.49-7.61,47.67,47.67,0,0,1-1.15-12.38c0-5.1-.16-10.21-.34-15.32a14.61,14.61,0,0,0-.65-3.76c-3.6-11.72-4.44-23.87-5.24-36a263.26,263.26,0,0,0-3.4-27.6A143.7,143.7,0,0,1-626,722.67a195.76,195.76,0,0,0-1.34-23.95c-.51-3.78-.35-7.66-.51-11.5-.43-9.58-.91-19.17-1.27-28.76-.13-3.51-.06-7,.07-10.54.28-7.35.78-14.69,1-22,.18-6.72-.17-13.45.13-20.16.39-9-1.21-17.85-1.67-26.78a34.79,34.79,0,0,0-1.17-5.63,94.83,94.83,0,0,1-2.33-20.93c.05-23-.16-46.07-.19-69.11,0-9,.16-17.92.3-26.88A56.88,56.88,0,0,1-631.77,444a40.8,40.8,0,0,0,.66-8.58c.11-8.32.09-16.64.14-24.95,0-2.88-.09-5.78.19-8.64a34.77,34.77,0,0,0-.33-10.48,23.67,23.67,0,0,1,.27-10.49,51.59,51.59,0,0,0,1.15-12.39q0-13.92,0-27.83a32.45,32.45,0,0,0-.35-6.7,35,35,0,0,1-.45-15.21,7.27,7.27,0,0,0-.09-2.86c-1.08-5.39-.75-10.84-.77-16.27q-.15-30.72-.22-61.43A92.15,92.15,0,0,1-630.25,220c.86-4.34.63-8.92.68-13.39.06-5.76-.13-11.51,1.37-17.17a25.23,25.23,0,0,0,.52-5.72,67,67,0,0,1,1.19-12.39,37.46,37.46,0,0,0,.58-7.64q.17-25.42.21-50.87a79.08,79.08,0,0,1,1.23-15.27,53,53,0,0,1,5-14.44c3-5.67,5.73-11.43,8.66-17.12a19.46,19.46,0,0,0,2.1-7.34,19.8,19.8,0,0,1,3.38-8.83c2.87-4.61,5.44-9.41,8-14.21A50.62,50.62,0,0,1-586.92,22c3.76-3.47,7.5-7,11.41-10.27a59.83,59.83,0,0,0,13.64-16A20.57,20.57,0,0,1-554-12.41a28.17,28.17,0,0,0,4.52-3.54c1.93-1.68,3.79-3.43,5.66-5.18,6.64-6.2,14.1-11,22.92-13.53,3.69-1.06,7.3-2.39,11-3.5a54.72,54.72,0,0,1,17-2.27c9,.17,17.92,0,26.88,0,9.31,0,18.48,1.57,27.66,2.79,9.89,1.31,19.28,4.59,28.31,8.81,15.36,7.18,30.72,14.36,46,21.69,6.33,3,12.79,6,18.65,9.83,12.05,7.83,24.73,14.81,35.34,24.7a21.84,21.84,0,0,0,7.16,4.71,25.1,25.1,0,0,1,8.06,5.09c1.17,1.06,2.66,1.75,3.91,2.74,4.34,3.46,9.45,3.64,14.6,3.31a5.23,5.23,0,0,0,3.22-1.85,24.2,24.2,0,0,0,2.88-4.93c2.63-5.48,5.13-11,7.75-16.51,2.08-4.33,4.35-8.56,7.68-12.11a6.29,6.29,0,0,0,1.2-1.49c2.88-5.89,7.61-10.15,12.34-14.5a143.05,143.05,0,0,0,9.79-10.5q8.61-9.69,17.09-19.48A21.81,21.81,0,0,0-211.5-42c3.48-6.45,7.66-12.53,10-19.59a71.79,71.79,0,0,0,2.91-10.13,25.9,25.9,0,0,1,1-4.67q3.31-8.47,6.51-17c2.69-7.16,6.37-13.94,9.5-21,2.34-5.25,4.47-10.6,6.72-15.9a58.74,58.74,0,0,1,2.77-6.1,127,127,0,0,0,8.1-17.38A30.91,30.91,0,0,1-156.82-165a20.31,20.31,0,0,0,4.19-5.2c1.86-3.88,4.75-6.77,7.81-9.61,8-7.4,16-14.78,23.81-22.3,3.3-3.16,6.66-6,11.32-6.8,3-.49,5.24-2.29,7.68-3.8a67.31,67.31,0,0,1,20.18-8.66,59.22,59.22,0,0,1,25.69-.14c10.12,2.11,19.4,6.43,28.55,11.05,2.29,1.15,4.54,2.36,6.84,3.48a21.31,21.31,0,0,0,8.37,1.86,11.06,11.06,0,0,0,10.52-5.42c.53-.8,1.05-1.61,1.52-2.44a28.93,28.93,0,0,0,1.79-3.39c3.49-8.66,9-16.2,13.43-24.32a20.62,20.62,0,0,1,2.69-4c6.79-7.63,13.16-15.67,20.57-22.73,8.79-8.39,17.78-16.59,26.75-24.79a52.48,52.48,0,0,1,4.74-3.21c2.58-1.87,5.4-3.55,7.59-5.82a23.19,23.19,0,0,1,8.69-5.72c6-2.29,11.86-4.75,17.79-7.14a4.15,4.15,0,0,1,.89-.33c11.65-1.7,23-5.73,35.08-3.93,7.9,1.17,15.9,1.64,23.85,2.54a58.24,58.24,0,0,1,33.5,15.1c3.77,3.45,7.41,7.06,11,10.74a63.52,63.52,0,0,0,12.15,9.33,13.12,13.12,0,0,0,12.85.94,79.47,79.47,0,0,0,8.37-4.62c2.2-1.29,4.14-3.15,6.47-4.05a60.3,60.3,0,0,0,13.36-7.4,34.94,34.94,0,0,1,5.92-3.15q15.76-7.08,31.57-14a55.44,55.44,0,0,1,12.85-3.72,69.6,69.6,0,0,0,13.71-4.22c6.88-2.74,13.85-4.92,21.27-5.53a24.05,24.05,0,0,0,5.63-1.14,56.29,56.29,0,0,1,16-2.59c3.82-.12,7.62-.76,11.43-1.17,2.55-.28,5.09-.6,7.63-.85,4.46-.44,8.92-.81,13.37-1.26,6.39-.65,12.76-.95,19.09.58a33.14,33.14,0,0,0,5.7.79,22.22,22.22,0,0,1,10,3.12,26.77,26.77,0,0,0,8,3.23c2.23.47,4,1.88,6,2.86,12.27,6,21.64,15.79,32.18,24.05,5.31,4.17,9.72,9.23,14.57,13.85a3.3,3.3,0,0,1,.65.7c4.59,8.07,11.67,14.43,15.66,22.93,3,6.46,7.91,11.61,12.53,16.9,2.39,2.73,5.44,3.05,8.74,1.57a11.79,11.79,0,0,0,7-8.57,64.39,64.39,0,0,0,1-6.64,51.35,51.35,0,0,1,3.77-13.79A142.75,142.75,0,0,0,551.37-290a58.44,58.44,0,0,1,7.92-18.4,91.47,91.47,0,0,0,6.91-11.5c2.24-4.67,5.33-8.72,8.27-12.89,2.58-3.66,5-7.41,7.64-11s5-7.48,8.1-10.69a146.32,146.32,0,0,0,14.13-18.06c7.2-10.31,16.07-19,25.7-27a37.84,37.84,0,0,1,6.41-4.2,27.66,27.66,0,0,1,23.19-1.69,20.87,20.87,0,0,1,8.06,5.05,75.63,75.63,0,0,1,6.35,7.18c5.59,7.47,12.23,13.94,18.93,20.36a24.83,24.83,0,0,0,6.18,4.49c3.46,1.72,6.88,1.69,10-.62,3.32-2.48,6.78-4.78,9.57-8,4.26-4.84,9.53-8.48,14.89-12,7.49-4.92,15.61-5.24,24-3.29a76.39,76.39,0,0,1,9.12,3,17.81,17.81,0,0,1,4.17,2.28c7,5,14,10.08,21,15.1a14.2,14.2,0,0,1,4.65,4.76c1.51,2.9,3.86,5.08,6.11,7.34q14.55,14.64,29.13,29.25c3.87,3.85,7.57,7.8,10.2,12.64,2.33,4.29,5.9,7.54,9.34,10.89,4.13,4,8.34,7.94,11.69,12.69,2.39,3.39,4.93,6.65,6.43,10.63,1.63,4.31,4.83,7.49,8.51,10.16a14.5,14.5,0,0,0,9.93,2.79,10.65,10.65,0,0,0,8.15-4.35c3.9-5.06,7.83-10.1,12-15a77.14,77.14,0,0,1,8-8.24c6.63-5.81,14.46-8.23,23.15-6.65,6.17,1.12,11.58,4.2,14.73,9.8a37.24,37.24,0,0,0,7.86,9.54,69.13,69.13,0,0,1,13.88,17.06c6.67,11.66,13.31,23.34,19.8,35.11a64.73,64.73,0,0,1,3.58,8.87c3.79,10.19,7.47,20.43,11.3,30.6,2,5.39,4.44,10.63,5.68,16.29a5.83,5.83,0,0,0,.56,1.83c5.08,7.86,6.41,17.38,11.15,25.41a37.73,37.73,0,0,1,2.06,5.35c1.19,3,1.9,6.09,3.7,8.83a13.16,13.16,0,0,1,1.61,4.46c1.17,5.38,3.49,10.27,6,15.12q3.51,6.83,6.6,13.85a66.35,66.35,0,0,1,2.73,8.17c1.53,5.25,3.4,10.31,6.58,14.83a19.49,19.49,0,0,1,2.83,5c2.5,7.69,7.55,14.07,10.75,21.39A17.39,17.39,0,0,0,1074-49a6.46,6.46,0,0,0,7.09,1.59,57.35,57.35,0,0,0,6.11-2.74c2.33-1.06,4.62-2.21,7-3.15A13.78,13.78,0,0,1,1107-52c5,3.06,9.33,6.85,12.16,12a121.46,121.46,0,0,1,8.42,18.27c5.5,15.71,10.19,31.66,15,47.59a170.2,170.2,0,0,0,6.65,18c4.91,11.47,9.56,23,13.47,34.9,3.32,10.07,8.6,19.26,13.7,28.51a11.56,11.56,0,0,0,2.26,3.08c5.12,4.56,8,10.75,11.94,16.16a25.93,25.93,0,0,1,4.91,11.36,6.71,6.71,0,0,0,.72,2.76c4.23,6,5.46,13.72,10.5,19.32,1.78,2,2.44,4.5,3.21,6.91a73.37,73.37,0,0,0,4.92,12.46A11.88,11.88,0,0,1,1216,182a41.92,41.92,0,0,0,7,14.58,39.45,39.45,0,0,1,5.79,13.12,47,47,0,0,0,6.39,13.83c4.32,6.71,8.1,13.79,11.87,20.83,2.41,4.51,4.54,9.19,5.2,14.37.46,3.63,3.07,6.3,4.29,9.57s2,6.72,3,10.09a2.44,2.44,0,0,0,.45.84c7.19,8.81,9.84,20,15.57,29.61a32.77,32.77,0,0,1,3.2,9c1.37,5.62,2.76,11.17,6.73,15.68a7.72,7.72,0,0,1,1.27,2.55c1,3,2,6.06,2.95,9.1a14.16,14.16,0,0,1-2.93,14.34,36.2,36.2,0,0,1-4.07,4,10.26,10.26,0,0,1-14-.52,21.64,21.64,0,0,1-5.55-7.74c-2.29-6-4.76-11.89-6.63-18a81.75,81.75,0,0,0-4.33-11.65q-6.45-13.41-11.83-27.28c-1.49-3.86-3.45-7.55-5.29-11.27q-4.68-9.46-9.48-18.85-3.49-6.84-7.15-13.6a60,60,0,0,0-5.73-8.83,80,80,0,0,1-5.11-8.09c-2.5-4.09-4.89-8.27-8.39-11.63a10.33,10.33,0,0,0-10.59-2.72,4.32,4.32,0,0,0-2.84,3.51,8.13,8.13,0,0,0,0,1.91c1.27,5.34,1.1,10.78,1.34,16.21a100.44,100.44,0,0,0,4.51,25.45c4,12.81,8.11,25.62,14,37.76a22.81,22.81,0,0,1,2.4,10.18,26.76,26.76,0,0,0,1.68,8.39c2.49,7.93,4.64,16,6.84,24a36.34,36.34,0,0,1,.81,13.34,25.38,25.38,0,0,1-1.93,7.37,12.81,12.81,0,0,1-11.11,8c-4.65.48-8.91-.67-12.28-4.16-4.22-4.37-8.48-8.7-12.6-13.16a21.59,21.59,0,0,1-3.22-4.73,63.19,63.19,0,0,0-10.21-13.87c-2.83-3.05-5.71-6.05-8.5-9.13-3.88-4.29-7.31-8.85-9.42-14.35a29.9,29.9,0,0,0-3.76-6.67c-3.92-5.44-8.08-10.72-12-16.15-4.68-6.43-10.19-12.24-14-19.3a31.86,31.86,0,0,0-6.87-8,63.42,63.42,0,0,1-6.58-6.93,48.93,48.93,0,0,0-7.7-7.16,107,107,0,0,1-15.82-15.31,15.21,15.21,0,0,0-2.57-2.84c-3.93-2.79-7-6.61-10.92-9.32-5.53-3.87-10-9-15.63-12.67-6.94-4.57-13.74-9.38-20.87-13.63-4.92-2.93-10-5.71-15.58-7.34-3.36-1-6.55-2.54-9.82-3.85-5-2-9.56-.87-13.36,2.58a80,80,0,0,0-7.61,8.59,5.32,5.32,0,0,0-1,2.65,26.82,26.82,0,0,0-.34,5.72c.65,7.64,1.15,15.33,3.38,22.72a35.73,35.73,0,0,1,1.44,10.4c0,9.95,1.47,19.76,2.88,29.57.18,1.27.4,2.53.6,3.79.68,4.35.09,8.28-3.5,11.32a13.14,13.14,0,0,0-1.85,2.21c-2.75,3.69-6.45,4.94-10.94,4.54a19.23,19.23,0,0,1-12.78-5.83,17.59,17.59,0,0,1-1.9-2.16c-5.22-7.68-11.64-14.4-17.44-21.61a20,20,0,0,1-1.72-2.3c-6.28-10.83-14.42-20.29-22.16-30a92,92,0,0,0-7.32-7.6A64.65,64.65,0,0,1,901,211.17a13.61,13.61,0,0,0-2-3.25c-4.87-4.76-8-10.79-11.74-16.32-5.67-8.26-12.34-15.47-20.86-20.92-3.22-2.06-6.07-4.69-9.18-6.93-2.59-1.86-5.25-3.64-8-5.26a15.16,15.16,0,0,0-9.27-1.84,8,8,0,0,0-6.8,4.68,16.42,16.42,0,0,0-1.23,12.13c1.19,4,2.56,7.91,3.62,11.93.89,3.39,1.44,6.87,2.17,10.3,1.4,6.61,4.29,12.71,6.63,19,1,2.7,2,5.41,3.19,8A17.66,17.66,0,0,1,848.69,233a12,12,0,0,1-7.13,9.58,14.11,14.11,0,0,1-13.73-.37c-5.47-3-10.05-6.74-13.2-12.16s-7.48-10.38-9.85-16.42a21.16,21.16,0,0,0-2.58-4c-1.26-1.84-2.69-3.59-3.85-5.5-5-8.23-11.12-15.59-17.47-22.8q-6.33-7.19-12.45-14.58a142.05,142.05,0,0,0-19-18.87l-.73-.61c-7.45-6.5-16.2-8.6-25.85-7.7-.64.06-1.27.15-1.9.23-6.13.74-10.46-2.22-13.84-6.9-2.71-3.75-1.74-10.82,1.89-14.15,3.9-3.58,8.32-5.74,13.85-5.52A41.94,41.94,0,0,1,735.89,116c3.3,1.22,6.58,2.51,9.85,3.79s6.62,2.44,9.07,5.18a4.66,4.66,0,0,0,1.51,1.18c7.77,3.4,13.46,9.64,19.93,14.79a41.9,41.9,0,0,1,10,11.54c3.13,5.26,7.88,9.18,12.33,13.28,1.58,1.45,4.59.84,6.06-.82a21.43,21.43,0,0,0,3.88-7.64c.51-1.51.72-3.11,1.08-4.67,1.91-8.13,7.07-13.67,14.57-16.69,11-4.43,21.86-4.23,31.89,3.1,2.32,1.69,4.71,3.31,7.09,4.91a161,161,0,0,1,34,30.84c4.3,5.16,8.51,10.39,12.89,15.49,4.58,5.33,9.18,10.66,15,14.78a26.54,26.54,0,0,1,7.52,8.62,29.78,29.78,0,0,0,6,7.42,39.39,39.39,0,0,1,5,5.73,29.8,29.8,0,0,0,6.91,6.59,17,17,0,0,0,3.41,1.71,4,4,0,0,0,5.4-2.58,46.63,46.63,0,0,0,2.15-20.8c0-.32-.1-.64-.14-1-1.6-13,3.47-23.78,11.71-33.3,3.93-4.53,9.34-6.7,15.21-7.38a87.35,87.35,0,0,1,20.12,0,32.55,32.55,0,0,1,13.44,4.85,63.87,63.87,0,0,0,13,6.08,31.86,31.86,0,0,1,5.23,2.36,91.45,91.45,0,0,1,9.06,5.37c6.48,4.62,13.61,8.42,18.87,14.65,1.65,2,3.7,3.55,5.44,5.42a57.73,57.73,0,0,0,16.6,12.84,14.55,14.55,0,0,1,3.13,2.16c2.89,2.52,5.81,5,8.54,7.7q15,14.83,29.92,29.79c1.35,1.35,2.92,2.75,3.62,4.44,1.77,4.31,5.11,7.18,8.24,10.37a67.28,67.28,0,0,1,6.45,8.33c4.26,6,8.42,12.08,12.6,18.14a18,18,0,0,0,8.12,6.49c1.2.5,3.76-.41,4.11-1.63,1.91-6.58,2.39-13.19.17-19.8-.41-1.21-1-2.35-1.52-3.52a41.28,41.28,0,0,1-3.84-14.77,32.14,32.14,0,0,0-3.7-13.79c-2.2-4-2.61-8.6-3.13-13-1.46-12.12-1.4-24.26,1.45-36.25.52-2.17,1.27-4.29,1.88-6.44a14.69,14.69,0,0,1,8.38-9.9c1.46-.65,2.91-1.34,4.32-2.09a24.8,24.8,0,0,0,3.27-2,7.1,7.1,0,0,0,3-7.53,36,36,0,0,0-1-3.69,124.17,124.17,0,0,0-7.91-18.5L1157,118.6c-6.24-12.25-12.38-24.56-17.73-37.24-3-7.07-5.57-14.26-7.88-21.6-2.1-6.67-4.15-13.42-7.41-19.71a98.29,98.29,0,0,1-7.49-20.72,121.29,121.29,0,0,0-9.87-24.94,34.15,34.15,0,0,0-2-3.22c-.59-.88-2.7-1.18-3.45-.38a13.17,13.17,0,0,0-2.91,3.69,31.33,31.33,0,0,0-1.92,7.38c-.75,5.71-3.87,10.1-7.57,14.14a9,9,0,0,1-12.91.34,21.32,21.32,0,0,1-5.26-7.93c-2.78-6.8-5.48-13.64-8.26-20.45-6.51-16-13-32-20.75-47.45-4.3-8.57-8-17.44-12-26.18a54.64,54.64,0,0,1-2.08-5.37,60.4,60.4,0,0,0-6.53-13.84,57.26,57.26,0,0,1-6.25-12.91,108.66,108.66,0,0,0-4.76-11.52,187.9,187.9,0,0,1-9.33-25.15,187.28,187.28,0,0,0-6.51-18c-4.31-10.66-8.52-21.39-12.21-32.29a234.07,234.07,0,0,0-19.69-43.63c-3.39-5.79-6.36-11.83-9.56-17.74a102.29,102.29,0,0,0-9.63-15.45c-3.88-4.86-6.89-5.55-12.57-3.25a27.64,27.64,0,0,0-8.71,5.85q-5.55,5.29-10.94,10.76a19.55,19.55,0,0,0-2.87,3.83c-3.09,5.32-7.23,9.75-11.63,14-2.32,2.21-4.54,4.52-7,6.62a35.13,35.13,0,0,1-6.16,4.53c-4.75,2.54-6.73,3.41-11.78-1.92a61.69,61.69,0,0,1-9.65-13.11,91.89,91.89,0,0,0-8.47-12.78C841.58-282.3,829.86-297.5,818-312.59c-5.53-7-11.46-13.73-17.08-20.69s-12.14-13.17-18.57-19.4c-4.83-4.68-9.82-9.18-14.75-13.74-6.4-5.92-14.06-7.3-22.33-5.81a16.18,16.18,0,0,0-9.1,5c-5.24,5.61-10.55,11.15-15.86,16.69a63.72,63.72,0,0,1-6.12,6.07c-5.4,4.27-11.33,5.5-18,2.87a45.64,45.64,0,0,1-10-5.6,80.84,80.84,0,0,1-23.53-27.46c-1.37-2.54-2.55-5.19-4.11-7.59-3.27-5.05-8-7.12-14-6.26a12.58,12.58,0,0,0-6.86,3.17c-5.88,5.41-11.83,10.71-16.22,17.56a138.64,138.64,0,0,1-16.93,22c-3.1,3.19-6.18,6.51-8,10.7a5.15,5.15,0,0,1-1.09,1.57c-5.83,5.6-9.25,13-14.28,19.22a42.83,42.83,0,0,0-5,8.18c-7.3,15-13,30.6-16.05,47.08a59,59,0,0,0-1,8.56,33.44,33.44,0,0,1-2.52,12.14c-4,9.47-3.88,19.35-3.19,29.29a13.74,13.74,0,0,0,1.36,4.54,7.9,7.9,0,0,0,4.81,4.43,54.28,54.28,0,0,0,7.43,1.89,66.7,66.7,0,0,1,23.17,8.87,140.8,140.8,0,0,1,28.54,22.55,105.94,105.94,0,0,1,9.07,11.16,61.94,61.94,0,0,0,6.76,8.06,54.17,54.17,0,0,1,4.3,5.12c1.61,2,3.08,4.09,4.8,6A71.39,71.39,0,0,1,656-118.37c3.64,7.8,8,15.26,12.27,22.78C673.78-85.87,679-76,682.42-65.21c7.38,23.34,6.55,19.09,6.67,42.28,0,4.48-.15,9,.12,13.44.47,7.75-1,15.29-2.19,22.87a11.39,11.39,0,0,1-1,3.67c-4.45,8.12-7,17.12-12.32,24.9-2.65,3.9-4.27,8.56-6,13a15.55,15.55,0,0,0,.28,12.17c1.41,3.22,2.64,6.53,4.07,9.74a69.32,69.32,0,0,1,5.11,20.4c.76,6.48-.51,12.79-2.18,19a86.38,86.38,0,0,1-9.57,21.89,162,162,0,0,1-23.64,30.07c-1.79,1.83-3.47,3.76-5.18,5.67a36.06,36.06,0,0,1-8,6.82c-2.17,1.34-4.08,3.07-6.18,4.52a25.38,25.38,0,0,1-10.53,4.34c-6.31,1-12.56,2.36-18.8,3.71a39.67,39.67,0,0,0-5.4,2,32.83,32.83,0,0,1-4.5,1.64c-4.66,1-8.92.34-12.15-3.62-1-1.24-2.09-2.44-3-3.76a6.68,6.68,0,0,1,1.19-8.71c3.94-3.44,8.19-6,13.73-6,7.25.1,13.86-2.38,20-6,6.91-4,13.82-8.09,20.36-12.67,3.88-2.73,7.11-6.41,10.52-9.78,2.27-2.25,4.28-4.74,6.49-7.05,8.16-8.54,13.07-18.94,16.52-30a26.07,26.07,0,0,0-.65-17,64,64,0,0,0-13-21.07A15.17,15.17,0,0,0,636,66.71a62.14,62.14,0,0,0-7.4-1.87c-9.64-1.44-16.28-7.09-21.12-15.08-4.62-7.61-2.19-17,5.37-21.83a49.18,49.18,0,0,1,5.13-2.58,7.23,7.23,0,0,1,6.49,0c4.9,2.34,10.09,4.05,14.68,7,5.66,3.71,10.64,2.56,15.87-1.49a15.18,15.18,0,0,0,4.81-5.9,32.26,32.26,0,0,1,5.38-9,11.81,11.81,0,0,0,2.66-6.07c1-5.67,2-11.34,3-17a44,44,0,0,0,.29-14.34c-1.51-9.8-2.91-19.65-5.11-29.3a121.81,121.81,0,0,0-8-22.56c-6.85-15.2-15.32-29.5-23.9-43.75-4.31-7.15-9.47-13.61-14.58-20.17-5.93-7.62-13.13-13.94-19.5-21.08-4.9-5.5-11.09-9.63-17.28-13.66-6.81-4.42-14.25-5.35-22.1-4.31a19,19,0,0,0-7.19,2.55c-1.37.81-2.64,1.81-4,2.63-4.32,2.59-8.6,2.27-12.6-.58a18,18,0,0,1-4.8-4.61c-2.73-4.3-5.49-8.64-6.94-13.63s-2.93-9.8-4.51-14.67a82.28,82.28,0,0,0-8.12-18.34c-5.4-8.69-10.58-17.53-15.7-26.39-6.12-10.6-14-19.87-22-29-3.56-4.05-7.86-7.47-11.87-11.13-1.65-1.51-3.47-2.84-5.12-4.35a72.32,72.32,0,0,0-24.58-14.58q-5.42-2-10.79-4a34.33,34.33,0,0,0-13.13-2.43c-7,.13-14.06-.29-21,1.19a27.31,27.31,0,0,1-7.61,0c-1.93-.15-3.86-.47-5.69.26-6.62,2.64-13.75,2.81-20.61,4.23-5.64,1.17-11.32,2.07-16.74,4.1a15.75,15.75,0,0,1-3.64,1.17c-6.4.73-12.39,3.18-18.66,4.35a45.61,45.61,0,0,0-11.76,4,72.85,72.85,0,0,1-7.88,3.52c-6.05,2.1-12.1,4.14-17.32,8a13,13,0,0,1-3.41,1.75c-5.21,1.81-9.75,4.82-14.1,8.07-6.39,4.77-13.4,8.74-19,14.54a86.26,86.26,0,0,0-8.3,9.29,48.81,48.81,0,0,1-6.43,7.06,10.31,10.31,0,0,1-9.83,2.44,41,41,0,0,1-4.61-1.31,13.91,13.91,0,0,1-8.41-7.41c-4.64-10.24-11.35-19.3-16.59-29.19-2.36-4.47-5.91-7.29-10.24-9.67a68.51,68.51,0,0,0-29.31-8.26c-7.66-.48-15.35-.48-23-.72a43,43,0,0,0-21.27,4.91c-2.56,1.31-5.19,2.5-7.69,3.93a32.56,32.56,0,0,0-6.36,4.26c-6.5,6.18-13.76,11.44-20.59,17.22A81.64,81.64,0,0,0,63-261c-4.41,4.64-8.71,9.38-13.13,14-2.2,2.32-4.56,4.48-6.82,6.74a34.93,34.93,0,0,0-3.91,4.17c-5.79,8-11.87,15.89-16.05,25-2.69,5.8-5.39,11.6-8,17.42a26.39,26.39,0,0,0-2.21,9.28c-.27,3.82-.71,7.64-1.27,11.43a27.43,27.43,0,0,1-4.74,11.43c-2.65,3.9-6.31,5.21-10.84,4.32a19.73,19.73,0,0,1-12-7.3c-3.14-4-6.22-8.15-9-12.42A50,50,0,0,0-37-189.29c-1.52-1.17-3.23-2.1-4.68-3.35-9.92-8.54-19.49-8-31.69-6.28-6.34.89-12.33,3.32-18.17,6a59.81,59.81,0,0,0-20.2,14.36,138.57,138.57,0,0,1-14.61,13.85c-6.7,5.57-12.48,11.91-16.46,19.78-1.29,2.56-3,4.92-4.48,7.38-.66,1.09-1.66,2.11-1.93,3.29-1.44,6.33-6,11.34-7.51,17.57-.91,3.78-1.93,7.36-4.21,10.57a22.16,22.16,0,0,0-1.91,4.39c-1.72,4.13-3.32,8.32-5.15,12.4a47.82,47.82,0,0,0-4.52,18.53c-.2,7.35-.12,14.71-.15,22.07,0,2.87.21,5.76,0,8.63a16.52,16.52,0,0,1-8.67,14.06c-1.67.95-3.39,1.8-5.13,2.61-2,.94-4.08,1.85-6.17,2.65a49.13,49.13,0,0,0-20.23,14.1c-5.61,6.54-11.8,12.57-17.62,18.94a40.59,40.59,0,0,0-5.12,6.9,124.57,124.57,0,0,0-6.13,12c-3.63,8.19-7,16.5-10.54,24.72a29.24,29.24,0,0,0-1.52,19.71c1.07,4,2.08,8.06,3.53,11.94,3.48,9.28,7.2,18.47,10.81,27.71a40.29,40.29,0,0,1,1.63,4.5,12.46,12.46,0,0,1-7.05,15.11,30.45,30.45,0,0,1-6.42,1.82,13.89,13.89,0,0,0-7.29,4.19c-6.69,6.69-8.73,14.43-7.26,23.69,1.11,7,1.9,13.94,4.84,20.45.39.87.59,1.84,1,2.69q6,12,12,24c1.59,3.14,3.26,6.23,4.84,9.38,2,4,4.13,7.95,7.31,11.2a13.51,13.51,0,0,1,3.75,6.59,21.4,21.4,0,0,0,4.73,9.33c5.13,6,8.13,13,10,20.52.23.94.53,1.85.74,2.79a10.74,10.74,0,0,0,4.27,6.18c6.14,4.8,12.9,8.5,20.6,9.79A29.92,29.92,0,0,1-178,293.66c3.27,2.56,6.68,5,10.17,7.21a11.61,11.61,0,0,1,4.88,5.72c3,7.86,8.24,14.41,12.43,21.56a57.7,57.7,0,0,0,9.8,11.74c5,4.84,11,7.6,18.18,7.29,4.15-.18,8.32,0,12.47-.11a23.32,23.32,0,0,1,13.57,4.09A54.93,54.93,0,0,1-82.86,364.5a6.18,6.18,0,0,1-.83,7.92c-.22.23-.41.49-.65.71a17.82,17.82,0,0,1-16,4.52,59.91,59.91,0,0,1-6.43-1.93c-6.82-2-13.71-3-20.85-2a66.66,66.66,0,0,1-8.61.44c-4.62.09-8.91-.79-12.18-4.46a6.52,6.52,0,0,0-1.54-1.15c-9.16-5.48-16.62-12.92-24-20.49a23.24,23.24,0,0,1-6.62-12.49c-.82-4.73-1.33-9.5-2-14.25a61.13,61.13,0,0,0-1.26-7.54c-1.8-6.49-6.26-10.34-12.77-11.55-5-.94-10.14-1.4-15.22-2-1.9-.23-3.83-.28-5.74-.47a18,18,0,0,1-8.9-3.26,28.06,28.06,0,0,0-4.83-3.13c-5.07-2.17-8-6.15-10-11-2.33-5.61-4.91-11.13-7-16.82A76.13,76.13,0,0,0-259,245.25a36.92,36.92,0,0,1-3.55-5.67q-4.32-8.58-8.42-17.26c-2.57-5.48-5.09-11-8-16.33-3.15-5.87-5.31-12.31-7.56-18.63a41.63,41.63,0,0,1-1.87-9.37,157.64,157.64,0,0,1,.49-36.39,25.88,25.88,0,0,1,2.3-8.26c1.68-3.44,3.18-7,4.74-10.48a79.19,79.19,0,0,0,4.45-14.66A14.82,14.82,0,0,0-277.86,98c-3.15-6.2-7.34-11.22-14.44-13-.31-.08-.59-.24-.9-.33a5.69,5.69,0,0,1-4.29-4.65c-.27-1.25-.68-2.47-1-3.72a41.9,41.9,0,0,0-13-21.87c-7.74-7.16-15.47-14.38-25.2-19A22.35,22.35,0,0,1-341.25,32c-1.7-1.46-3.31-3-4.91-4.58a35.3,35.3,0,0,0-13.06-7.83c-5.1-1.87-10.15-3.89-15.26-5.72A137.65,137.65,0,0,1-400.15.94,21.84,21.84,0,0,0-410-2.43c-1.91-.17-3.84-.2-5.76-.18A17.29,17.29,0,0,1-424-4.71a123,123,0,0,0-12.35-5.2,50.28,50.28,0,0,0-10.23-2.4,174.46,174.46,0,0,0-25.83-1.58c-15.91,0-31.05,3.52-45.67,9.61A45.11,45.11,0,0,0-530.2,3.31q-14.91,12.85-28.68,26.91a148,148,0,0,0-31.76,47.59c-3.87,9.47-7.18,19.17-10.61,28.81a28.7,28.7,0,0,0-.31,18.86A55.74,55.74,0,0,1-600,152c-.26,1.58-.46,3.17-.58,4.76-1.47,19.14-2.82,38.29-2.45,57.5.12,6.76-.18,13.42-2,20a50.16,50.16,0,0,0-1.5,13.32q-.12,20.16-.17,40.32a80.1,80.1,0,0,0,.27,8.63c.63,6,1.1,12.06.1,18.14a18.9,18.9,0,0,0,.73,8.55c2.25,7.43,2.75,15.06,2.73,22.78,0,18.88,0,37.75,0,56.63a110.38,110.38,0,0,1-1.28,19.13,13.7,13.7,0,0,0-.26,1.91c-.56,19.18-3,38.29-2.16,57.52.25,5.75.68,11.49,1.17,17.22a230.52,230.52,0,0,1,1,29.72,82,82,0,0,1-1.09,10.49,87.59,87.59,0,0,0-1.31,16.24,226.09,226.09,0,0,0,1.4,25.86c.68,5.37.51,10.85.64,16.28.11,4.79.06,9.57,1,14.33a52.47,52.47,0,0,1,.52,9.56c.06,15.36,0,30.72.1,46.08.06,10.88.31,21.76.42,32.63.09,9.31,1.79,18.46,2.79,27.67.84,7.63,2,15.23,3,22.83,1.07,7.92,2.2,15.84,3.22,23.76.4,3.17.59,6.37.86,9.55A20.92,20.92,0,0,0-589,794.08c3.6,5,8.39,8.12,14.48,8.21a42.13,42.13,0,0,1,20,5.72c4,2.16,8.08,3.86,10.59,7.88,5.75,4.58,11.46,9.21,17.26,13.72a8.88,8.88,0,0,0,5.45,1.57,7.1,7.1,0,0,0,5.32-1.8,36.76,36.76,0,0,0,4.35-5.06c1.46-2.09,2.56-4.44,4-6.57a12.32,12.32,0,0,0,2.23-6.24,17.17,17.17,0,0,1,3.17-8.91,14.31,14.31,0,0,0,2.48-5.12c.79-4.22,2.75-7.79,5-11.31,1.73-2.68,3.5-5.36,5-8.18a37,37,0,0,0,3.28-7.93,98.89,98.89,0,0,1,6.71-17.93A122.21,122.21,0,0,0-470.41,724c1.17-6,2.4-11.91,3.55-17.88a122,122,0,0,1,8.51-27.43,22,22,0,0,0,1.19-2.62c2.93-9.83,9.7-17.13,16.11-24.68a13.06,13.06,0,0,1,5.48-3.73c5.08-1.94,10.12-4,15.21-5.91a7.11,7.11,0,0,0,4.85-6.53,50.78,50.78,0,0,0-.12-9.55c-.45-3.8-1.32-7.56-2.13-11.31a150.16,150.16,0,0,1-2.82-27.65c-.16-6.35,2.86-11,8.06-14.34a9.07,9.07,0,0,1,10-.39,43.85,43.85,0,0,1,16.45,15.74,89.21,89.21,0,0,1,4.84,9.37c1.74,3.78,3.32,7.63,4.85,11.5A195.05,195.05,0,0,0-359,641.59a74.21,74.21,0,0,1,3.69,6.72,49.46,49.46,0,0,0,9.83,12.92,13.54,13.54,0,0,0,6.51,3.88,3.76,3.76,0,0,0,3.44-1.21,15.68,15.68,0,0,0,1.46-2.45,49.27,49.27,0,0,0,4-17.7c0-2.24.19-4.48.17-6.71-.15-15-.26-30.08-.53-45.12a134.64,134.64,0,0,0-3.06-25.68,25.86,25.86,0,0,1-.77-6.64,59.11,59.11,0,0,0-1-12.4A173.84,173.84,0,0,1-338,512.8c.19-5.43.19-10.87-1.21-16.22a19.25,19.25,0,0,1,2.94-16.46c.54-.78,1-1.66,1.48-2.46,3-4.61,8.33-6.06,13.44-3.74a28.8,28.8,0,0,1,12.38,10.31c4.07,6.13,8.14,12.28,10.9,19.14A33.25,33.25,0,0,0-291.72,514a33.21,33.21,0,0,1,3.29,4.7c3.2,4.87,7.46,8.75,11.87,12.46a11.46,11.46,0,0,0,3.37,1.74,4.8,4.8,0,0,0,5.67-2.39,6.67,6.67,0,0,0,.65-1.79c.31-4.29,2.28-7.91,4.28-11.6a39.26,39.26,0,0,0,3.14-8c.88-3.08,1.62-6.16,2.75-9.17a29.85,29.85,0,0,0,1.45-7.48c.34-3.23.88-6.36,2.77-9.07,1.69-2.43,2.28-5.23,3-8A201.52,201.52,0,0,0-244.53,450c.95-7,2.46-13.84,5.92-20.13,1.89-3.44,2.33-7.3,2.71-11.12A25.38,25.38,0,0,1-232.12,408a20.81,20.81,0,0,1,9.22-8.12,2.65,2.65,0,0,1,3.53,2.14,17.15,17.15,0,0,1-1.22,9.4c-3.9,8.85-5.54,18.34-8,27.61a90.43,90.43,0,0,0-1.66,9.44c-1.28,8.54-2.46,17.1-3.76,25.64-.53,3.47-.93,7-2.41,10.24a14.27,14.27,0,0,0-1,7.52,30.36,30.36,0,0,1-.87,9.48c-1.67,8.13-2.78,16.39-4.45,24.52-1.54,7.49-2.67,15.11-5.82,22.2a25.14,25.14,0,0,0-1.21,5.6c-.48,2.51-.84,5.05-1.38,7.55a17.17,17.17,0,0,1-5.17,9c-1.87,1.76-3.6,3.65-6.43,3.82-3.57.22-7.07.1-10.19-1.93a20.73,20.73,0,0,1-6.92-6.54c-4.6-7.73-10.66-14.39-15.92-21.63a80.26,80.26,0,0,1-6.72-10.46c-1.88-3.66-4.6-6.89-7-10.27-.89-1.26-3.13-.69-3.91.89a25.87,25.87,0,0,0-2.9,11,74.63,74.63,0,0,0,.25,9.58c1.23,11.13,2.69,22.23,3.93,33.35.5,4.45.85,8.92.91,13.39.24,17.6.28,35.2.51,52.79A57.47,57.47,0,0,1-313.84,664c-2.61,7.55-5.05,15.18-7.1,22.9-2.6,9.83-9.17,15-18.64,17.16a5.85,5.85,0,0,1-4.58-.89c-4.91-3.14-9.35-6.7-11.68-12.32-.6-1.46-1.82-2.67-2.4-4.14C-361.32,679-366,672-370.19,664.87a105,105,0,0,1-8.32-16.17,20.71,20.71,0,0,0-6.22-8.39,3.54,3.54,0,0,0-5,.81,24.57,24.57,0,0,0-3.75,11.75q-.36,6.23-.25,12.47c.12,7,.42,14.07.64,21.11Z" transform="translate(633.29 608.2)"/><path d="M312.57,2.87c4.48,0,9,.14,13.44,0a65.21,65.21,0,0,1,22.67,3.47,85.39,85.39,0,0,0,18.56,4.09c7.07.66,13.46,3.95,19.62,7.43a12.36,12.36,0,0,1,4.5,4.88,64.71,64.71,0,0,1,6,15.14c1.19,4.31,2.28,8.65,3.35,13,.45,1.86.65,3.78,1.07,5.65a25.08,25.08,0,0,0,1.5,5.5c3.54,7.24,5.62,15,7.92,22.62A82.85,82.85,0,0,0,419.42,104a49,49,0,0,0,7.86,9.64,14,14,0,0,0,8.5,4,45.91,45.91,0,0,0,5.75.17c5.43-.12,10.87-.35,16.31-.45,10.17-.2,18.74,3.37,25.56,11a36.28,36.28,0,0,0,4.08,4.05c3.16,2.58,4.7,6,5.56,9.84a69.06,69.06,0,0,1,1.19,7.58c.83,7.31,1.59,14.62,2.39,21.94A20.51,20.51,0,0,1,495.07,183a12.36,12.36,0,0,1-5.9,6.05,30.13,30.13,0,0,1-4.47,1.72,9.83,9.83,0,0,1-11.64-4.31,34.07,34.07,0,0,1-5.64-16.13c-.15-1.91,0-3.86-.29-5.75-.61-4.1-1.25-8.21-2.15-12.26-.86-3.86-3.63-6-7.42-6.54-4.78-.71-9.57-.76-14.16,1.2-.88.38-1.79.69-2.69,1-6.71,2.61-13.23,2.12-19.27-1.77-4.83-3.11-9.52-6.48-14.08-10a38.29,38.29,0,0,1-11.52-15.13c-5.69-12.87-11.32-25.78-15.22-39.33-1.5-5.2-2.44-10.58-3.65-15.87-.71-3.11-1.25-6.28-2.22-9.3-4.47-13.86-14.34-21.65-28.38-24.1a157.91,157.91,0,0,0-28.65-2.45,64.94,64.94,0,0,0-14.3,1.33c-4.33,1-8.85,1.09-13.18,2.33-1.8.51-3.82.27-5.73.27-2.88,0-5.76-.13-8.64-.12-4.81,0-9.57.2-14.22,1.75-2.72.91-5.58,1.4-8.38,2-8.1,1.85-16.17,3.8-24.3,5.49-7,1.47-13.26,4.59-19.32,8.2a7,7,0,0,0-.74.61c-2,1.47-2.73,4.23-1.09,5.87,4.82,4.82,5.51,10.71,4.66,16.9-1.17,8.55-2.48,17.08-4.14,25.54a55.32,55.32,0,0,1-5.11,14.43,28.58,28.58,0,0,0-2.81,10.11c-.55,5,1.49,8.62,6.24,10.72a37.13,37.13,0,0,0,12.91,3.4c1.6.1,3.2.11,4.8.13,6.45.11,11.76,2.88,16.18,7.33,4.73,4.75,5.95,10.55,3.78,16.81A36.87,36.87,0,0,1,233,179.62a23.16,23.16,0,0,1-9.29,4.82c-4.95,1.26-9.82,2.8-14.72,4.23-2.12.62-4.4.74-6.59,1.17-3.44.69-6.93,1.25-10.29,2.24a24.36,24.36,0,0,0-12,7.58,11.8,11.8,0,0,0-3,6.91c-.16,2.23-.22,4.47-.28,6.71-.11,4.16,0,8.33-.33,12.47a77.56,77.56,0,0,1-1.5,9.44c-.68,3.45-1.69,6.83-2.28,10.28a15.53,15.53,0,0,1-5.84,9.61,13.9,13.9,0,0,1-22.14-8.93c-1-8.39-5.27-15.75-7.1-23.85-.24-1.08-2-1.89-3.14-1.58a28.87,28.87,0,0,1-3.68,1c-7.64,1-12.61,6-16.78,11.71-5.09,7-11.17,13.1-17,19.43a8.22,8.22,0,0,1-2.24,1.79c-3.6,1.85-4.68,4.94-4.72,8.74a25.21,25.21,0,0,0,2.41,11.11q6.87,14.79,13.29,29.76A51.68,51.68,0,0,1,110,321c.34,4.46,1.11,8.89,1.77,13.32,2.81,18.87,1.74,37.65-1.53,56.35-.71,4.1-1.55,8.17-2.43,12.23a12.92,12.92,0,0,1-3.73,6.59c-5.74,5.62-11.79,10.78-19.49,13.65-3,1.11-5.75,2.8-8.68,4.07a34.1,34.1,0,0,1-7.19,2.56,76.16,76.16,0,0,1-19.14.6,13.72,13.72,0,0,1-8.42-4.2,77.93,77.93,0,0,1-13.83-18.32c-3-5.29-5.79-10.69-8.67-16-.3-.56-.63-1.12-.87-1.7C13.87,380.64,9.9,371.22,6,361.77c-4.19-10.27-5.2-21.07-4.8-32a69.45,69.45,0,0,0-.55-10.5c-1.4-12.43-1.75-24.87.62-37.27A60.54,60.54,0,0,1,7.47,263.9c2.78-5,5.71-10,8.92-14.77,6-9,15.16-13.48,25.26-16.26a9,9,0,0,1,7.41,1.1c4.5,3,9.76,4.86,13.64,8.82A12.49,12.49,0,0,0,65,244.5c5.67,3.51,14-.09,15.06-6.61a41.55,41.55,0,0,0,.44-6.69,40,40,0,0,1,1.75-12.29,36.7,36.7,0,0,0,.3-21.76,34.74,34.74,0,0,1-1.45-6.55c-.49-5.81-3.77-10.09-7.49-14.08a31.61,31.61,0,0,0-9.9-7.46c-2.33-1.05-4.52-2.41-6.76-3.64-6.6-3.6-11.4-9.22-16.31-14.69A7.19,7.19,0,0,1,39,144.42,32.44,32.44,0,0,1,40.9,137c2.37-5.14,5.94-9.23,12.11-9.55,12.13-.63,24.19-2.53,36.39-2.07a23.32,23.32,0,0,0,14.48-4.19c3.2-2.22,4.71-5.11,4.31-9a31.27,31.27,0,0,0-.58-4.76,48.55,48.55,0,0,1-1.07-17.15c.09-1,.12-1.91.13-2.86a3.6,3.6,0,0,0-2.34-2.75,17.3,17.3,0,0,0-2.83-.43c-3.2,0-6.4.15-9.6.22a25.38,25.38,0,0,0-9.32,2c-1.48.61-3,1-4.49,1.68-9.89,4.61-20.3,7.76-30.56,11.33-6.33,2.21-12.44,5-18.65,7.53a2.35,2.35,0,0,0-.85.43c-5.58,5.85-14,7.75-19.29,14.08a9.13,9.13,0,0,1-2.26,1.77C-2,128.56-9.13,135.49-16.66,141.93c-1.46,1.25-2.83,2.6-4.34,3.78-8.9,6.9-16.4,15.19-23.81,23.58-2.56,2.9-4.42,6.25-6.52,9.45-4.15,6.3-4.57,13.18-3.94,20.29a16.54,16.54,0,0,0,1.57,5.49c3.34,7,5.48,14.33,7.78,21.65,1.05,3.35,2.33,6.63,3.69,9.87a112.34,112.34,0,0,1,6.11,17.14,28.86,28.86,0,0,0,2.85,7.07c2.16,3.92,4.55,7.71,7,11.48,4.95,7.72,7.77,16,7.67,25.31-.05,4.47.6,9,.39,13.41-.55,12-3.22,23.46-10,33.61a21.41,21.41,0,0,0-3.68,11.7c-.09,3.39.8,6.31,3.91,8.2a34.05,34.05,0,0,1,3.15,2.19,14.18,14.18,0,0,1,4.78,7A61.12,61.12,0,0,1-17,390.13c.14,5.44.19,10.86,1.48,16.22A35.84,35.84,0,0,1-15,414c.09,4.16.06,8.32.08,12.48a22.62,22.62,0,0,0,1.84,9.33c2.21,4.94,2.87,10.47,5.78,15.18,1.67,2.71,2.82,5.74,4.53,8.42a19.22,19.22,0,0,1,2.9,9c1,11.86,4.27,23.22,7.64,34.57,2.36,8,5,15.84,7.26,23.81a108.16,108.16,0,0,1,2.54,14.14c.37,2.55.62,5.07,1.86,7.39a27.31,27.31,0,0,1,2.4,8.25A235.9,235.9,0,0,0,34,599.89c3.34,8.64,6,17.55,8.84,26.37a110.56,110.56,0,0,0,4.51,11.61c2.23,5,4.43,9.94,6.17,15.08a290.06,290.06,0,0,0,12.52,30.1c2.18,4.63,4.78,9.05,7.2,13.56.45.85,1,1.65,1.39,2.52C81.35,713.72,90.39,727,98.4,740.77c2.09,3.59,4.36,7.06,5.53,11.13a22.28,22.28,0,0,0,2.64,5.1q7.77,12.69,15.6,25.33a82.24,82.24,0,0,0,21.45,23c3.86,2.84,7.74,5.68,11.77,8.29,12.34,8,24.76,15.9,37.15,23.83,3.23,2.08,6.42,4.1,10.44,4.51a14.73,14.73,0,0,1,5.32,2c11.88,6.49,24.78,10.3,37.6,14.25a49.08,49.08,0,0,0,23.72,1.54c5.65-1.05,11.42-1.27,17.07-2.48a96,96,0,0,0,20.09-6.26,342.57,342.57,0,0,0,42.87-23.47,25.2,25.2,0,0,0,4.24-3.83c1.79-1.84,3.42-3.82,5.18-5.67a29.65,29.65,0,0,1,9.17-6.87,49.48,49.48,0,0,0,13.37-9.2c.93-.88,2-1.64,3-2.44.5-.4,1-.74,1.54-1.14,4.11-3.33,16.91-18.29,18.91-22.8,1.94-4.36,3.39-8.95,4.89-13.5a3.4,3.4,0,0,0-.68-2.65c-4.4-5.48-7.87-11.68-12.83-16.72a60.37,60.37,0,0,0-4.86-4.61,7.49,7.49,0,0,0-8.12-1,22.4,22.4,0,0,0-4.13,2.39,70.66,70.66,0,0,0-8.38,6.35c-5.26,5.11-11.22,9.47-15.76,15.39a51.61,51.61,0,0,1-15.6,14A50.74,50.74,0,0,0,334,779c-7.44,5.65-16,9.36-24.11,13.8A31.67,31.67,0,0,1,296.2,797c-8.18.36-15.59,3.27-23,6.43-2.35,1-4.61,2.21-7,3.21a20.92,20.92,0,0,1-10.32,1.4c-12.74-1.14-25.5-2.06-38.24-3.1-3.51-.28-7-.53-10.51-1A52.51,52.51,0,0,1,182,793a27.41,27.41,0,0,1-6.11-6c-3.36-5.05-8.44-8.76-11-14.41a6.57,6.57,0,0,0-1.83-2.21c-4.57-3.82-7.19-8.93-9.34-14.29-2.74-6.8-6.05-13.39-7.27-20.76-.67-4.08-2.09-8-3-12.06a39.2,39.2,0,0,1-1.07-6.62,72.48,72.48,0,0,0-4.73-22.38,137.8,137.8,0,0,1-4.06-13.77c-3-11.13-7.06-21.91-10.38-32.93a35.6,35.6,0,0,0-1.62-4.51,29.9,29.9,0,0,1-3-11,18.62,18.62,0,0,0-3.65-9.77c-3.5-5.07-5.42-10.85-7.75-16.45a10.78,10.78,0,0,1-.94-2.71,25.29,25.29,0,0,0-6.35-13.71,13.32,13.32,0,0,1-3.07-8.89,25.2,25.2,0,0,0-.4-6.69c-1.29-4.66,1.19-7.28,4.53-9.56a66.08,66.08,0,0,1,14.44-7.51c8.44-3.11,16.56-6.79,23.94-12a23.79,23.79,0,0,1,9.69-4c6.66-1.13,13-3.4,19.32-5.57s12.66-4.55,19.51-4.61c9.33-2.18,18.8-3.7,27.89-7,7.51-2.71,15.24-4.85,22.94-7A169.17,169.17,0,0,0,262,507.87a141.64,141.64,0,0,1,17-6.47,89.92,89.92,0,0,0,15.28-5.67,15.84,15.84,0,0,1,5.48-1.57,46.2,46.2,0,0,1,19,1.82c6.13,1.95,8.81,7.09,7.32,13.63a7,7,0,0,1-2.5,3.95,26.32,26.32,0,0,1-15.89,6,48.22,48.22,0,0,0-15.82,3.5,215.3,215.3,0,0,1-22.72,7.57c-5.86,1.58-11.48,4-17.29,5.76s-11.68,3.29-17.52,4.93a49.51,49.51,0,0,0-6.42,1.92c-7.93,3.49-16.27,5.79-24.49,8.42-6.39,2.05-12.8,4.08-19.63,4.23a12,12,0,0,0-4.63,1.08c-7.56,3.45-15.15,6.87-22.56,10.64a45.83,45.83,0,0,0-13,9.8,18.93,18.93,0,0,0-5,17.65c2,10,3.67,20.14,5.36,30.23,2.06,12.34,4.93,24.43,9.7,36.06,3.52,8.58,6.53,17.37,9.76,26.07a47.62,47.62,0,0,1,3.22,14,47.4,47.4,0,0,0,3,13c2,5.74,4.09,11.41,5.1,17.47,1,5.75,4.12,10.73,7.18,15.6a74,74,0,0,0,18.2,19.59,104.75,104.75,0,0,0,15.5,9.55,42.33,42.33,0,0,0,20.22,5.1,131.15,131.15,0,0,1,15.31,1.08c5.79.62,11.45.62,17.05-1.35a41.15,41.15,0,0,1,7.51-1.52,79.15,79.15,0,0,0,31.9-12.5c3.19-2.12,6.61-3.9,9.8-6,4.53-3,9.16-5.83,13.22-9.5a66.17,66.17,0,0,1,7-5,22.27,22.27,0,0,0,2.49-1.41,39.39,39.39,0,0,1,15-8.29,8.77,8.77,0,0,0,2.5-1.42c4.78-3.54,10.32-5.06,16.06-5.77,4.94-.61,9.15-2.78,13.26-5.27A9.79,9.79,0,0,0,391.17,713c-2.82-7.13-5.87-14.17-9-21.19a30.88,30.88,0,0,0-3.53-5.7c-4.36-5.88-10.05-9.79-17.39-11a64.82,64.82,0,0,0-8.55-1c-7.68-.17-15.36-.09-23-.21a20.6,20.6,0,0,0-10.22,2c-7.2,3.76-15.22,4.74-23,6.68a9.54,9.54,0,0,1-5.64-.57,16.39,16.39,0,0,1-7.64-5.56,9.34,9.34,0,0,1-2.09-7.19c.44-2.83,1.15-5.63,1.81-8.43a3.36,3.36,0,0,1,.91-1.66c3.05-2.79,5.68-6.2,9.81-7.5,4.32-1.35,8.06-3.74,12-5.93s6.11-5.6,7.49-9.56c1.47-4.23.77-8.29-2.72-11.42-7.61-6.81-14.91-13.94-24-19s-16.5-12.08-23.8-19.28c-2.51-2.47-4.88-5.08-7.22-7.7a13.43,13.43,0,0,1-3.66-8.66c-.06-1.91-.14-3.84-.09-5.75.17-6.47,4.25-10.63,10.8-11a39.74,39.74,0,0,1,12.39,1c4.62,1.26,9.28,2.42,13.86,3.84,9.76,3.05,19.47,6.26,29.22,9.36,2.74.86,5.53,1.56,8.32,2.3a29.37,29.37,0,0,0,10.48.63,19.93,19.93,0,0,0,12.67-6.16,7.81,7.81,0,0,0,2.28-5.15,56.8,56.8,0,0,0-.9-15.28c-1.66-7.49-3.2-15-3.15-22.75,0-3.89-1.25-7.55-2.39-11.22s-2.24-7.33-3.38-11c-1.95-6.23-2.05-12.6-1.41-19a11.62,11.62,0,0,1,8.82-10.26c7.2-1.66,14.55-.77,19.14,7.1,3.7,6.34,7.25,12.81,10.38,19.45,1.93,4.07,3.87,8.06,6.76,11.52A53.69,53.69,0,0,1,393,520.15c2.8,6.09,6,12,9,18a22.55,22.55,0,0,0,2.12,3.18,34.19,34.19,0,0,1,5.68,11c1.19,4.11,3.73,7.41,5.79,11,1.3,2.28,3.45,3.76,5.65,5.09a7.69,7.69,0,0,0,9.58-1.69A12.76,12.76,0,0,0,434.2,558c-.12-3.83-.55-7.64-.8-11.47-.26-4.14-.72-8.3-.64-12.44a18,18,0,0,1,5.6-12.86,17.62,17.62,0,0,1,3.05-2.29,6,6,0,0,1,6.36-.16,17.67,17.67,0,0,1,8.64,11,55.21,55.21,0,0,1,1.8,9.39c.51,4.45.86,8.93,1,13.4a83.4,83.4,0,0,1-.36,12.45,224.49,224.49,0,0,0-2.06,33.48,37,37,0,0,1-.62,7.64,63.2,63.2,0,0,0-.4,17.21c.34,3.82.54,7.65.75,11.48a11.31,11.31,0,0,1-2.85,7.94c-3.11,3.79-6.93,4.43-11,1.92a11.67,11.67,0,0,1-5-5.66c-.93-2.38-1.73-4.82-2.56-7.23-1.95-5.62-5.15-10.42-10.27-13.48-8-4.75-12.14-12-14.69-20.54-.73-2.45-1.38-4.92-2-7.39a21,21,0,0,0-2.48-6.2,55,55,0,0,1-5.83-13.11,36.36,36.36,0,0,0-5.86-10.92c-2.33-3-4.5-6.22-6.77-9.32a27.1,27.1,0,0,0-5.9-6.24,7,7,0,0,0-9.49,1.14,15.64,15.64,0,0,0-3.67,8.7c-.47,4.8-.71,9.66.68,14.31,2.08,6.93,1.46,14,1,21a13.92,13.92,0,0,1-1.9,5.36,7,7,0,0,1-4.36,3.54c-5.62,1.36-11.26,2.28-17.07.87a18.87,18.87,0,0,1-8.56-4.07c-5-4.56-11.06-7.59-16.64-11.29a30.61,30.61,0,0,0-12.54-4.51c-6.74-1-7.44-.53-8.76,6.56a14.45,14.45,0,0,0,3.31,12.57c3.79,4.26,7.36,8.9,13.11,10.93a10.32,10.32,0,0,1,5,4.31,11.21,11.21,0,0,0,6.1,4.39c6.66,2.32,13.41,4.27,20.57,4.2a25.21,25.21,0,0,1,4.74.46,2.37,2.37,0,0,1,1.43,1.17c1.14,2.35,1.84,4.85,1,7.42a7.93,7.93,0,0,1-2,3.17c-2.09,2-4.38,3.73-6.59,5.58-1.22,1-2.51,2-3.67,3.08-2.8,2.66-2.79,6.4,0,9.35a27.79,27.79,0,0,1,2.74,2.68c2.93,4.1,7.19,5.28,11.81,5.09,8.66-.36,17.27.27,25.89.58,6.84.24,13.31-1.47,19.71-3.61a56,56,0,0,1,7.31-2.15,6.58,6.58,0,0,1,6.74,2.76,24.92,24.92,0,0,1,4.63,11.42c1.62,10.76,2.53,21.61,3.3,32.43.69,9.55.38,19.19.19,28.78-.07,3.48-1,7-1.63,10.41-.29,1.57-.93,3.07-1.25,4.63a8.2,8.2,0,0,0,2.31,7.92c2.71,2.69,5.5,5.33,8.07,8.15a26.53,26.53,0,0,1,3.2,4.75,4.8,4.8,0,0,1-.25,5.45c-3.24,4.34-6.08,9-10.26,12.59a76.68,76.68,0,0,0-10.88,12.1,125.25,125.25,0,0,1-22.14,22.53,97.2,97.2,0,0,0-8.41,7.84A258.3,258.3,0,0,1,359.87,849a34.41,34.41,0,0,1-11.7,6.34,51.93,51.93,0,0,0-12.34,5.2c-5.5,3.24-11.71,5.15-17,8.86a13.15,13.15,0,0,1-3.6,1.28q-8.24,2.56-16.49,5.1c-10.44,3.23-21,5.52-32,5.53a38.42,38.42,0,0,0-9.5,1.08c-5.83,1.48-11.31.78-16.92-1.16a297.64,297.64,0,0,1-39.81-16.64,134.57,134.57,0,0,0-22-9.37,67.77,67.77,0,0,1-13.13-5.82c-10.33-5.79-20.59-11.69-30.18-18.66a144.87,144.87,0,0,1-16.91-14.17c-4.32-4.29-8.38-8.71-11.08-14.34a61.94,61.94,0,0,0-6.33-9.6A114.14,114.14,0,0,1,89,773a75.66,75.66,0,0,0-3.57-6.79A69.24,69.24,0,0,0,80.61,759c-3.85-4.89-7.32-5.07-12.12-.74a47.36,47.36,0,0,0-4,4.12,14.87,14.87,0,0,0-3.69,7.67,37,37,0,0,1-7.53,17.42,37.81,37.81,0,0,0-3.17,4.79c-4.75,8.71-12.35,14.52-20.21,20.07a8.44,8.44,0,0,1-2.54,1.32c-6.47,1.77-12.61,4.7-19.36,5.43a32.75,32.75,0,0,1-5.73.48c-7-.48-14-1.1-21-1.75a17.47,17.47,0,0,1-3.68-1.05c-2.73-.92-5.42-1.92-8.15-2.8a43.51,43.51,0,0,1-22.12-16.12,90.72,90.72,0,0,1-10.07-17.42A203.82,203.82,0,0,1-71.7,755.1c-2-6.76-4.2-13.42-6.42-20.09a31.81,31.81,0,0,0-6.8-11.48,28.89,28.89,0,0,0-9-7.08c-3.76-1.77-7.3-4-10.93-6-3.92-2.2-7.65-4.6-10.53-8.19a18.76,18.76,0,0,0-4.29-3.8A43.71,43.71,0,0,1-131,686.91c-3.18-4.4-6.31-8.86-9.32-13.39A103.25,103.25,0,0,0-152,658.34a26.45,26.45,0,0,1-4.39-6.23c-4.11-8-8.09-16-12-24a59.41,59.41,0,0,1-6-20.09,122,122,0,0,0-5.19-24.35c-.78-2.42-1.23-5-1.88-7.42s-1.3-4.93-2-7.36c-.83-2.75-1.75-5.48-2.64-8.21a26.29,26.29,0,0,1-.64-12.34c1.12-7.26,2.16-14.53,3.29-21.79a126.83,126.83,0,0,1,4.8-20.52,68,68,0,0,1,6.86-14.73,93.11,93.11,0,0,0,9.76-19.69c2.55-7.74,6.82-14.42,13.57-19.32a28.83,28.83,0,0,0,4.21-3.91,217.59,217.59,0,0,1,23.22-21.51c9.2-7.53,19.21-13.91,31.12-16.38,7.82-1.62,15.69-2.94,23.54-4.4a18.76,18.76,0,0,0,2.82-.56A9.16,9.16,0,0,0-57,398c.33-1.89.37-3.82.54-5.73.52-5.83,1.84-11.37,5.73-16a11.63,11.63,0,0,0,1.07-1.59,18.63,18.63,0,0,0,1.13-18.33c-1.06-2.32-2.25-4.59-3.33-6.9a20.56,20.56,0,0,1-1.44-14c1-4,1.51-8.15,3.36-12A19.21,19.21,0,0,0-48.36,317a109.68,109.68,0,0,0-.35-24,53.56,53.56,0,0,0-4.81-16.52c-3.19-6.63-5.46-13.64-9-20.16a90.77,90.77,0,0,1-6.22-16,77.14,77.14,0,0,0-5.86-14.15c-.77-1.4-1.51-2.82-2.15-4.29a20,20,0,0,1-1.66-10.3c.21-1.91.54-3.81.72-5.72a17.78,17.78,0,0,0-3.63-12.6c-1.13-1.55-2.5-2.93-3.57-4.51a9.35,9.35,0,0,1-.92-9.15,23.31,23.31,0,0,1,2.7-5.05c5.14-6.94,10.4-13.78,15.61-20.67,4.47-5.9,10-10.74,15.61-15.49,6.36-5.37,12.56-10.91,17.5-17.68A64.34,64.34,0,0,1-23.07,109c8.17-6.68,16.46-13.2,24.72-19.77a7.22,7.22,0,0,1,2.42-1.53c5-1.29,9.31-4.17,13.76-6.68a10.41,10.41,0,0,1,2.64-1.13c10.28-2.43,19.74-7.47,30.25-9.26a35.36,35.36,0,0,0,17.12-8.16A34.39,34.39,0,0,1,80.51,55.9c6.41-2,12.77-4.12,19.18-6.13a20.23,20.23,0,0,1,4.67-.92A23,23,0,0,0,116.08,45a13.83,13.83,0,0,1,7.26-2.13,57.18,57.18,0,0,0,14.08-2.74c13.43-4.18,26.88-8.3,40.28-12.56,5.48-1.74,10.9-3.68,16.28-5.71A58.91,58.91,0,0,1,209.75,18,25.18,25.18,0,0,0,218,15.79a61.57,61.57,0,0,1,18.47-4.94c10.15-1.18,20.2-3.34,30.5-3.18a40.54,40.54,0,0,0,13.2-2.21,57,57,0,0,1,18-2.61h14.4Zm-467,538.83a83.24,83.24,0,0,0,1.64,18.69c1.65,7.47,2.88,15.06,3.87,22.65.49,3.8,1.21,7.49,2,11.24,3.06,14.46,8.42,28.11,13.87,41.76a38.87,38.87,0,0,0,6.34,10.65,133,133,0,0,1,12.7,18c6.62,11.24,4.28,9.38,15.33,18,2.52,2,4.65,4.4,7.13,6.41a20.15,20.15,0,0,0,4.92,2.86,19.63,19.63,0,0,0,18.42-1.35,62.46,62.46,0,0,1,14.89-6.36c2.74-.81,5.4-1.93,8.13-2.82a15.35,15.35,0,0,1,8.5,0c3.81.9,7.08,2.84,10.43,4.71,6,3.34,12.38,2.86,18.63,1.17,3.14-.86,6.27-5.27,2.64-9.17-1.1-1.18-2.24-2.37-2.49-4-.6-3.78-1.11-7.57-1.56-11.37a3.37,3.37,0,0,1,2.84-3.35c4.43-.58,8.88-1,13.31-1.69a80,80,0,0,0,9.36-1.89,6.3,6.3,0,0,0,2.91-2.31,8.84,8.84,0,0,0,2-5.3c0-3.83,0-7.67-.2-11.49a14,14,0,0,0-1.32-4.56q-5.34-12.32-10.82-24.57c-1.72-3.81-3.3-7.63-3.39-11.89a16.92,16.92,0,0,0-1.85-7.37,44.62,44.62,0,0,1-3.5-10.94c-.82-3.74-1.74-7.47-2.49-11.23-2.56-12.86-5.73-25.57-9.33-38.17A25.55,25.55,0,0,0-18,516.41c-2.73-2.7-5.44-5.41-8-8.24s-5-5.81-7.49-8.73a16.11,16.11,0,0,1-3.35-6.82c-2-8.41-3.73-16.85-3.52-25.57.06-2.55,0-5.11-.11-7.67a16.42,16.42,0,0,0-6-12.58c-3.17-2.67-6.56-5.08-9.87-7.59a11.06,11.06,0,0,0-6.32-2,54.08,54.08,0,0,0-18,1.85c-10,2.91-19.16,7.14-26.73,14.4-5.31,5.08-10.75,10.06-15.64,15.53A133.62,133.62,0,0,0-148.8,511.4C-152.55,521.37-154.93,531.57-154.41,541.7Zm254.28-392a52.16,52.16,0,0,0-6.7.52,8.22,8.22,0,0,0-6.72,6.08,3.29,3.29,0,0,0,.91,3.49c2.12,1.4,4.31,2.71,6.4,4.17,4.46,3.09,9,6,13.74,8.67a81.88,81.88,0,0,1,21,16.48,72.69,72.69,0,0,0,6.16,6A8.49,8.49,0,0,0,138,197c4.44,1.21,8.85,1.16,13-1.08a7,7,0,0,0,3.86-5.18,53,53,0,0,1,1-5.66c2.43-8,9.76-12.79,17.51-11.69,3.48.49,6.91,1.27,10.37,1.86,2.53.43,5.13.82,7.6,0,4.85-1.58,9.65-3.34,14.44-5.09a10.73,10.73,0,0,0,2.47-1.43,7.85,7.85,0,0,0-1.3-13.45,19.25,19.25,0,0,0-7.41-1.75c-8-.36-15.95-.88-23.94-.25-2.22.17-4.46.2-6.68.15a3.8,3.8,0,0,1-3.14-1.88c-1-1.6-2.11-3.17-3.16-4.75-4.65-2.05-9-4.94-14.1-5.76a9.87,9.87,0,0,0-7.3,1.68,38.48,38.48,0,0,0-4.29,3.8c-1.87,1.74-3.63,3.59-5.54,5.28a8.92,8.92,0,0,1-8.07,1.92,26,26,0,0,1-3.66-1.07C113.85,150.58,107.86,149.82,99.87,149.73ZM42.46,749a67.44,67.44,0,0,0-1.26-12.34c-.81-4.55-3.14-8.33-4.82-12.44-2.23-5.47-6.36-9.54-10.87-13.14a19.31,19.31,0,0,0-6.05-2.72c-3-1-5.57.13-7.36,2.94a27.5,27.5,0,0,0-2.29,4.19c-1,2.42-1.42,5-.25,7.46,2.54,5.26,3.47,11,4.63,16.55,1.82,8.84,2,17.72-1.5,26.39A37,37,0,0,1,5.11,778c-3.57,3.75-7.24,7.19-12.43,8.59a5.55,5.55,0,0,0-3.74,2.76,2,2,0,0,0,.11,1.78c1.88,2.3,4.79,3,7.25,4.46,8.17,4.67,15.94,3.3,23.26-2.09,1-.75,1.94-1.67,2.91-2.5,4.67-4,8.19-8.88,11.56-14A49.3,49.3,0,0,0,42.46,749Zm141-693.33c-1.43.08-3.35.09-5.24.33a27.59,27.59,0,0,0-4.67,1c-2.44.72-4.89,1.46-7.25,2.4-7.42,3-14.94,5.41-23,6.21-6.45.64-12.23,3.52-17.82,6.58a6.7,6.7,0,0,0-1.24,10.66,51.48,51.48,0,0,0,6.56,5.53,60.11,60.11,0,0,1,11.71,9.79c3.11,3.51,7.21,5.17,11.63,6.14,5.81,1.27,10.73-.31,14.56-4.93,1.42-1.72,2.71-3.55,4-5.33l6.9-9.17a23.35,23.35,0,0,0,2.84-3.82c2.58-5.56,6.58-10.16,10-15.16a40.94,40.94,0,0,0,2.74-5c.66-1.39-.39-3.19-1.88-3.86C190.34,55.7,187.14,55.85,183.48,55.68Zm-194,688.81c.11-8.09-2-14.3-6.59-19.62a14.3,14.3,0,0,0-11.75-5.43c-1.91.06-3.82.22-5.73.36A7.93,7.93,0,0,0-40.19,723a11.32,11.32,0,0,0-2.71,7c-.25,10.36,4.13,18.48,12,24.92a14,14,0,0,0,8,3A10.94,10.94,0,0,0-11,749.1C-10.67,747.23-10.58,745.3-10.48,744.49Z" transform="translate(633.29 608.2)"/><path d="M480.19,798.86c0,3.2,0,6.4,0,9.6.11,13.61,3.14,26.63,8,39.26a38.6,38.6,0,0,0,4.76,9.39,7.34,7.34,0,0,1,1.48,2.45c1.3,5.48,5.3,9.43,7.92,14.15.31.56.68,1.08,1,1.62A28.57,28.57,0,0,0,521.9,888c3.13.68,6.27,1.27,9.43,1.81a9.88,9.88,0,0,1,5.75,3.18q5.22,5.63,10.5,11.2c2.85,3,5.73,6,8.59,9a13.81,13.81,0,0,1,2,2.09c3.15,5.33,8,9.07,12.11,13.57,4.72,5.21,9.18,10.66,13.67,16.07,7.59,9.14,15.74,17.69,25.32,24.77a81.49,81.49,0,0,0,7.14,4.85,91.73,91.73,0,0,1,16.83,12.67,14,14,0,0,0,6.6,3.63c7.61,1.83,14.1,6,20.43,10.34a9.38,9.38,0,0,1,4.14,6.22c.84,4.8-3,10.57-7.93,11.54-5.86,1.16-11.48.58-16.47-3.09-.77-.57-1.49-1.21-2.22-1.83a38.05,38.05,0,0,0-12.4-7.14A58,58,0,0,1,608.45,998a19.36,19.36,0,0,0-4.14-2.4,40.63,40.63,0,0,1-9.8-6,52,52,0,0,0-5.7-3.5c-1.62-1-3.49-1.86-4.71-3.25A29,29,0,0,0,575,976a4.79,4.79,0,0,1-1.5-1.18c-5.07-6.17-11.89-10.76-16.06-17.74a7.61,7.61,0,0,0-1.16-1.53c-9.13-9-16.38-19.67-25.8-28.38a42.55,42.55,0,0,0-6.72-5.35c-3-1.82-6-3.65-8.25-6.45a8.25,8.25,0,0,0-5.89-2.88c-2.54-.22-5.1-.24-7.66-.29a17,17,0,0,1-10.72-3.57c-3.48-2.8-7-5.51-10.37-8.48a8.34,8.34,0,0,1-2.39-4.05c-1.73-7-5.46-12.92-10-18.41-1-1.24-2-2.53-3-3.78a11,11,0,0,1-2.75-7,26.18,26.18,0,0,0-3.08-12c-1.42-2.85-2.12-6.09-3.72-8.81a15.13,15.13,0,0,1-2.27-8.15c0-3.52,0-7-.23-10.55a70.5,70.5,0,0,0-.9-9.54,71.38,71.38,0,0,1-1-17.2c.13-2.56.27-5.12.29-7.68a43,43,0,0,0-1.25-12.36,30.63,30.63,0,0,1-.81-5.67,13.52,13.52,0,0,1,2.13-8.23c.81-1.37,1.86-2.6,2.8-3.89a20.34,20.34,0,0,0,3-7c1.93-7.09,4-14.14,6.41-21.08,1.35-3.91,3.62-7.48,5.13-11.33,1.39-3.56,2.14-7.37,3.51-10.94,2.56-6.65,6.73-12.35,11.34-17.69,5.65-6.53,11.5-12.9,17.27-19.32,1.5-1.67,3.1-3.25,4.57-4.93a23.36,23.36,0,0,0,4.8-9.3,5.77,5.77,0,0,0-1.14-5.41,21.75,21.75,0,0,0-2-2.1c-2.73-2.56-3.65-5.8-4.06-9.44-1.1-9.84-2.13-19.71-3.8-29.47-1.36-7.89-2.33-15.78-3-23.75A395.85,395.85,0,0,0,488,536.25c-1.63-7.15-4.29-14.06-6.51-21.07-1-3-2-6.07-3-9.11a34.09,34.09,0,0,1-1.85-9.38,30.47,30.47,0,0,0-2.43-11.18A43.55,43.55,0,0,1,471,471.58c-.55-7-2.57-13.82-4.53-20.57-2.94-10.13-5.81-20.26-7.8-30.64a90.53,90.53,0,0,0-4.08-13.77,685.27,685.27,0,0,1-21.85-71.49c-.69-2.79-1.31-5.61-2.13-8.36a57.77,57.77,0,0,1-2.06-12.26c-.43-5.73-1.46-11.43-1.76-17.16-1-19.28-1-20,7.05-40.05,2.27-5.61,5.36-10.9,8.28-16.23,3.88-7.07,9.5-12.88,14.83-18.79a24.72,24.72,0,0,1,17-8c5.43-.37,10.8-1.07,16.19-1.8a54.18,54.18,0,0,1,20,1.26,89.24,89.24,0,0,1,35.79,17.71c7.46,6,14.82,12.2,22.83,17.53a31.16,31.16,0,0,1,5.14,4.31c8.91,9.26,16.66,19.38,22.18,31.06a32.87,32.87,0,0,1,2.6,8.19,85.32,85.32,0,0,0,3.37,14,46.84,46.84,0,0,1,2.65,13,129.21,129.21,0,0,0,2.19,14.2,117.81,117.81,0,0,1,1.58,16.23c.49,10.22,1.05,20.44,1.57,30.67a11,11,0,0,0,.11,1.91,110.39,110.39,0,0,1,2.32,16.09c.11,1.15,1.08,2.24,1.69,3.33.38.69,2,.74,2.56.18a10.85,10.85,0,0,0,1.39-1.31c4.5-6.34,7.72-13.15,8.82-21a126.78,126.78,0,0,0,1.27-28.67c-.52-6-.5-12.14-.49-18.22,0-14.07.23-28.15.24-42.23a118.29,118.29,0,0,1,1.42-20.07c.66-3.77.41-7.76,1.56-11.34,1-3.26,3.53-6,5.18-9.13,1.8-3.39,3.36-6.9,5-10.35,1.54-3.16,3-6.38,4.7-9.45a63,63,0,0,0,4.82-10.4c4.72-13.77,14.61-22.34,28.29-26.4a58.31,58.31,0,0,1,22.82-2c6.69.71,13.29,1.81,19.48,4.73,2.88,1.37,5.92,2.41,8.87,3.64,6.27,2.63,11.93,6.12,16.43,11.34a24.26,24.26,0,0,0,4.25,3.85c5.34,3.81,9,9.1,12.61,14.35a13.65,13.65,0,0,1,2.11,5.26c1.37,7.69,4.93,14.53,8.29,21.4a71.92,71.92,0,0,1,4.36,10.61,140.55,140.55,0,0,0,7.25,19.81c2.61,5.47,5.36,10.87,8.2,16.22a27,27,0,0,1,2.84,9.07c.88,6.32,1.56,12.66,3,18.92,1.38,5.93,1.09,12.11.44,18.17a61.48,61.48,0,0,0-.07,12.43c.47,4.82.45,9.56-1.65,14.13a12.67,12.67,0,0,0-.58,7.55A20.22,20.22,0,0,1,796,394.19c-1.89,4.75-3.53,9.61-5,14.51-2.2,7.45,2.73,12.49,10.62,11.15a21,21,0,0,0,4.53-1.47,55.73,55.73,0,0,1,23.32-4.66c3.16.1,6.33-.67,9.51-1,2.21-.22,4.51-.81,6.65-.46a142.07,142.07,0,0,1,22.43,5c9.55,3.15,16.65,9.32,22.55,17.11,1.93,2.56,3.66,5.25,6.09,7.38a24.17,24.17,0,0,0,3,2.4,7,7,0,0,0,6.4.93,22.15,22.15,0,0,0,2.68-1c5.11-2.62,10.08-5.55,15.57-7.36a6.86,6.86,0,0,0,1.7-.88c11.21-7.74,23.86-8.39,36.82-7.5a24,24,0,0,1,10,3.25q13.85,7.67,27.7,15.36a46,46,0,0,1,9.94,7.49c3.41,3.37,6.78,6.79,10.13,10.22,2.91,3,5.76,6,7.25,10a12,12,0,0,0,2.07,3.22,54,54,0,0,1,9.08,17.87c2.71,8.53,5.21,17.14,7.61,25.76,1.1,4,2.07,8.05,1.63,12.31a16.68,16.68,0,0,0,.44,4.75,56,56,0,0,1,0,21c-1.91,10.48-1.55,21-.82,31.58a22.41,22.41,0,0,0,1.12,4.64,61.31,61.31,0,0,1,2.47,17c0,3.52.08,7,.08,10.56a64.72,64.72,0,0,0,1,11.44,72.68,72.68,0,0,1,1.24,12.39c0,12.15-.21,24.31-.45,36.46a26.35,26.35,0,0,1-.9,7.6c-2,6.19-2.33,12.47-2.3,18.9a41.41,41.41,0,0,1-1.41,10.43,41.78,41.78,0,0,0-1.07,11.4c.13,7.35.08,14.71.19,22.07.1,6.48-1.29,12.69-3.16,18.83-1.76,5.82-3.43,11.65-5.16,17.47a18.68,18.68,0,0,1-.93,2.73c-3.14,6.67-5.09,13.79-7.69,20.66a96.85,96.85,0,0,0-4.11,11.76,32.12,32.12,0,0,1-4.74,10.44,24.1,24.1,0,0,0-3.9,9.72c-.66,4.23-2.67,7.74-5.06,11.24-3.79,5.52-7.65,11-10.32,17.26a20.26,20.26,0,0,1-3.66,5.55,23.36,23.36,0,0,0-5.37,10c-.4,1.55-1,3-1.41,4.59a36.8,36.8,0,0,1-13.82,20.21c-2.57,1.91-5.15,3.71-6.69,6.72a10.36,10.36,0,0,1-3.23,3.49c-7.85,5.55-13.88,13.25-21.92,18.55-7.6,8.41-17.28,14.16-26.42,20.6-5.23,3.69-10.51,7.3-15.69,11.07a248.11,248.11,0,0,1-31.09,18.92,63.16,63.16,0,0,0-10.36,6.88,48.73,48.73,0,0,1-10.56,6.52A302.69,302.69,0,0,1,802,1025.21c-4.64,1.19-9.18,2.77-13.77,4.14-2.45.73-4.89,1.49-7.38,2.07-4.05.94-8.11,1.83-11.86,3.72a18.42,18.42,0,0,1-8.38,1.76c-5.44,0-10.89.21-16.32-.08a319.36,319.36,0,0,1-38.15-4c-3.14-.55-6.28-1.24-9.36-2.08a15.82,15.82,0,0,1-4.28-2.07,5.4,5.4,0,0,1-2.63-5.76,56.21,56.21,0,0,1,2.11-7.37,7,7,0,0,1,4-4c4.17-1.92,8.68-2.35,13.13-2.41a45.81,45.81,0,0,0,9.49-.74,24.54,24.54,0,0,1,11.43.21,32.05,32.05,0,0,0,16.13.06,13.15,13.15,0,0,1,2.83-.51c7.12-.15,13.87-2.19,20.71-3.83q14.46-3.48,29-6.76c9.12-2.07,17.61-5.77,26-9.85.86-.42,1.65-1,2.53-1.37,10-4.31,18.9-10.66,28.29-16.1A75.15,75.15,0,0,0,867,961.84a182,182,0,0,1,26.1-19.47c9.32-5.59,18.3-11.75,27.45-17.63A171.08,171.08,0,0,0,944,906.43c5.71-5.26,10.53-11.14,13.29-18.53a37.66,37.66,0,0,1,7-11.42c6.75-7.75,12.22-16.41,18-24.86a63.83,63.83,0,0,0,7-13.62c6.4-17.06,13.34-33.92,18.69-51.36a119.62,119.62,0,0,1,5.63-15.28,26.11,26.11,0,0,0,2.24-8.27,102.26,102.26,0,0,1,2.45-12.21c1-4.36,2-8.73,2.81-13.12a43.28,43.28,0,0,0,.39-13.39c-.55-4.76-1.24-9.5-1.88-14.25-.23-1.76-1.42-3.43-2.67-3.66a5.47,5.47,0,0,0-4.54,1,11.45,11.45,0,0,0-2.46,2.9c-1.15,1.91-2,4-3.17,5.91-1.5,2.46-2.82,5.15-4.81,7.14-7,7-13,14.93-20.84,21.15a159,159,0,0,1-25.8,16.53c-9.21,4.79-18.94,5.61-28.93,4.08A108.25,108.25,0,0,1,909.64,761a37.54,37.54,0,0,1-16.22-9.82c-6-6.25-12.07-12.37-18.14-18.51a77.63,77.63,0,0,0-6.22-6,8.53,8.53,0,0,0-11.38.63,59.19,59.19,0,0,0-4.31,5.14c-1.38,1.75-2.6,3.65-4,5.35a25.77,25.77,0,0,1-9.12,6.85,115.26,115.26,0,0,1-19.93,6.84,37.48,37.48,0,0,1-22.65-.93c-4.49-1.68-9.07-3.13-13.62-4.66a23.5,23.5,0,0,1-9.85-5.71,37.18,37.18,0,0,0-4.42-3.68,25.82,25.82,0,0,0-12.4-4.74,5.6,5.6,0,0,0-6,3.8,22.88,22.88,0,0,0-1.05,5.6c-.13,3.19.08,6.4.1,9.6a20.18,20.18,0,0,1-1.26,7.51c-2.88,7.45-5.56,15-8.45,22.43-1.38,3.58-2.9,7.11-4.59,10.55s-3.63,6.76-6.68,9.28a19.68,19.68,0,0,0-4.64,6.06,49.9,49.9,0,0,1-12.55,15.59,55.82,55.82,0,0,0-4,4.13c-1.82,1.79-3.66,3.56-5.56,5.26-3.09,2.78-6.56,5.22-9.28,8.31-4.68,5.33-10.75,8.08-17.25,9.83-10.2,2.74-20.58,4.58-31.26,4.23a126,126,0,0,0-33.35,3.2,50.78,50.78,0,0,0-10.87,3.66,65.69,65.69,0,0,1-10.82,3.87,42.44,42.44,0,0,1-7.55,1.21c-6,.6-10.51-2.2-13.92-6.86a8.8,8.8,0,0,1-1.59-4.42,61.27,61.27,0,0,1,.08-9.58A17.56,17.56,0,0,1,573,833.47a14.18,14.18,0,0,1,8.58-3.9c5.1-.38,10.22-.58,15.32-1.05,4.77-.43,9.55-.92,14.28-1.7,8.86-1.46,17.71-2.62,26.73-2.23,3.83.17,7.68,0,11.51.19,9.08.44,17-2.68,24.1-7.94a61.39,61.39,0,0,0,6.51-5.66,308.34,308.34,0,0,0,34.74-40.93,36.27,36.27,0,0,0,4.91-9.29c1.15-3.31,3-6.44,3.67-9.83.82-4,.76-8.26,1-12.41.15-2.23.2-4.47.32-6.71a23.11,23.11,0,0,0-1-7.57c-1.21-4.31-2.23-8.66-3.38-13-.74-2.78-1.42-5.59-2.39-8.29-2.08-5.8-5.09-11.08-9.91-15.06s-9.8-8.26-15-11.88C681,668,668,667,654.59,672.3a58,58,0,0,0-7.68,3.94,165,165,0,0,0-18.83,13.22c-4,3.16-8,6.35-12.15,9.4-3.61,2.68-7.28,5.24-9.53,9.3-7.33,7.54-8.93,8.85-19.29,6.45a22.5,22.5,0,0,1-7-3,25.32,25.32,0,0,0-11.71-3.87A32.06,32.06,0,0,1,557.27,705a17.42,17.42,0,0,0-3.66-1.11,49.73,49.73,0,0,1-13.52-4.77,21,21,0,0,0-2.68-1.05,18.33,18.33,0,0,0-13.14-.24c-7.06,2.56-13.11,6.55-17.37,12.94a111.88,111.88,0,0,0-11.68,23.07,78.92,78.92,0,0,1-6,13,13.31,13.31,0,0,0-2.15,9.13,10.62,10.62,0,0,1-1.75,7.33c-3.57,5.59-4.7,11.83-4.93,18.3-.2,5.76-.35,11.51-.52,17.27Zm171.33-382h-.27c0,4.16,0,8.32,0,12.47a104.59,104.59,0,0,1-2.4,24.76,55.77,55.77,0,0,0-1.56,12.35,99.55,99.55,0,0,1-2.88,23.73c-2,7.75-2.85,15.7-3.75,23.65a145.11,145.11,0,0,1-2.45,16.1c-3.2,14.11-11.48,24.73-23.28,32.84a29.07,29.07,0,0,1-18.1,5.1,12.82,12.82,0,0,1-12-8,31.45,31.45,0,0,1-2.56-9.2c-1-8.27-1.7-16.51-1-24.87a130.41,130.41,0,0,0,.25-19.16c-.39-5.75-.54-11.49-.74-17.24A94.55,94.55,0,0,0,579.59,476c-.62-3.47-1-6.94-1.35-10.44-.44-4.49-.92-8.87,1.89-13,.84-1.22.81-3.06,1.09-4.63.58-3.15.9-6.35,1.67-9.44,1.5-6,1.29-12,.42-18.1-.63-4.42-1.2-8.87-1.48-13.33-.5-7.71,0-15.24,3.42-22.48a25.65,25.65,0,0,0,2.11-15.94A258.7,258.7,0,0,1,584,340.11a62.8,62.8,0,0,0-1.17-7.56c-1-5-2-10-3.12-15a88,88,0,0,0-8-21.52,44.16,44.16,0,0,0-7.12-10.2c-7.3-7.62-14.59-15.26-22.09-22.69a76.46,76.46,0,0,0-28.34-17.51,135.14,135.14,0,0,0-17.54-4.76,23.58,23.58,0,0,0-18.36,3.38c-9,5.87-16.27,13.46-19.75,24-4.05,12.26-6.08,24.83-5.07,37.78a17.93,17.93,0,0,0,1.22,5.58c3.73,8.57,5.65,17.66,7.59,26.71a189.4,189.4,0,0,0,6.78,23l11.46,32.57c1.8,5.14,3.51,10.29,3.92,15.78a20.4,20.4,0,0,0,1.09,4.65c3.58,11.3,5.88,22.91,8.23,34.5,2.8,13.79,5.25,27.64,9.64,41.05a39.56,39.56,0,0,1,1.85,9.39c.72,10.29,3.27,20.17,6.39,29.93,1.94,6.09,3.94,12.17,5.87,18.26a65.66,65.66,0,0,1,2.76,14.1c.51,5.73,1.09,11.45,1.63,17.18.73,8,1.71,15.91,2.1,23.89a94.23,94.23,0,0,0,3,19.87,95.1,95.1,0,0,1,2.66,16.06,43.17,43.17,0,0,0,.62,5.71,10.65,10.65,0,0,0,1.94,4.3c3.1,3.69,6.5,7.07,11.51,8.17a34.4,34.4,0,0,1,3.65,1.17,27.69,27.69,0,0,1,12.51,8.55,36.3,36.3,0,0,1,3.52,4.54c3.58,5.88,9.27,8.62,15.46,10.58a12.43,12.43,0,0,0,10.2-1c4.46-2.52,8.94-5,13.38-7.51a19.63,19.63,0,0,0,3.17-2.15c6.78-5.93,14.65-10.27,22.05-15.3a79.64,79.64,0,0,1,32.8-12.72c11-1.74,21.69-1,31.69,4.42,3.37,1.83,6.83,3.55,10,5.61,6.19,4,12.27,8.11,18.35,12.24,2.65,1.8,5.17,3.77,7.8,5.58a20.27,20.27,0,0,0,3.36,1.84,6.32,6.32,0,0,0,8.13-3.1,24.82,24.82,0,0,0,1.73-6.42,49.06,49.06,0,0,0,.08-7.67c-.43-10.54-.94-21.08-1.39-31.63-.25-5.74-.85-11.53,2.12-16.89a6.39,6.39,0,0,0,.67-2.77c.21-5.43.4-10.85.44-16.28a5.37,5.37,0,0,0-2.85-4.72q-5.35-3.16-10.78-6.23c-1.69-.95-3.42-1.87-4.38-3.61-3.14-5.7-5.37-11.56-3.86-18.3,1.05-4.68,1.88-9.41,2.52-14.16,2-14.56,4.13-29.11,5.62-43.72a137.29,137.29,0,0,1,6.59-29.87c3.76-11.21,7.72-22.36,12.56-33.17a59.06,59.06,0,0,0,4.18-12.72,253.36,253.36,0,0,1,8.47-31.45,158.26,158.26,0,0,0,6-22.17c1.35-7.55,2.52-15.17,2.1-22.87a111.36,111.36,0,0,0-4-25.51c-1.62-5.52-3-11.12-5.05-16.49a88.13,88.13,0,0,1-4.91-18.48C754.14,273,749.9,262.72,744.2,253a68.88,68.88,0,0,1-4.82-9.36,27.46,27.46,0,0,0-4.47-7.33c-3.49-4.16-7.26-8.09-11-12a11.84,11.84,0,0,0-3.82-2.84c-5.3-2.21-10.45-4.78-16.2-5.82-3.51-.63-7-1.13-10.47-.41a60.72,60.72,0,0,0-16.06,6.11q-2.42,3.54-4.85,7.07c-.18.26-.39.51-.58.77a68.66,68.66,0,0,0-10.43,23.51c-2.59,10.25-3.76,20.74-5.34,31.16a26.92,26.92,0,0,0-.26,5.74c.73,11.53,0,23-.53,34.52-.08,1.6-.05,3.2,0,4.79.17,11.19.41,22.38.49,33.58a80.63,80.63,0,0,1-.74,9.54c-.85,7.3-1.83,14.58-2.66,21.89-.29,2.53-.33,5.1-.42,7.66C651.81,406.65,651.68,411.76,651.52,416.87ZM957,460.19a72.48,72.48,0,0,0-13.75,1.52,30.64,30.64,0,0,0-15.12,7.69c-8.89,8.05-15.59,17.61-21.07,28.2a49.3,49.3,0,0,0-5.53,19.17c-.5,6.34-2.31,12.55-2.16,19a19,19,0,0,1-.62,2.8,61.48,61.48,0,0,0-.95,7.59c-.07,3.88-1.05,7.57-1.68,11.35-1.33,8-3.21,15.62-8,22.33a11.32,11.32,0,0,0-2,7.29c.32,4.8.78,9.62,4,13.58a10.41,10.41,0,0,1,2.28,6.19c.56,12.51.66,25-4.61,36.75a39,39,0,0,0-3.32,13c-.34,4.46-.9,8.9-1.24,13.36-.22,2.86-.3,5.75-.28,8.62a13.24,13.24,0,0,0,2,7.31,31.26,31.26,0,0,1,3.62,8.83,65.32,65.32,0,0,0,5.78,14.16c6.38,11.37,15.92,19,28,23.65a27.21,27.21,0,0,0,19.68.15c6-2.2,12.2-3.88,17.49-7.68a19.52,19.52,0,0,1,3.4-1.76,55.44,55.44,0,0,0,22.37-19,49.69,49.69,0,0,1,5.51-6.6,10.77,10.77,0,0,0,2.69-3.89c2-5.7,4-11.31,4.15-17.57.19-11.83.7-23.67,1.63-35.46.82-10.29,0-20.41-1.39-30.57-1.43-10.45-2.9-20.91-2.71-31.51.17-9.59.28-19.18.49-28.77a40.69,40.69,0,0,1,.62-5.71c.65-4.08,2.7-7.11,6.74-8.57,1.2-.43,2.41-.85,3.57-1.38a9.56,9.56,0,0,0,5.47-7.39,23,23,0,0,0,.31-3.81,60.88,60.88,0,0,0-6-27.86,46.76,46.76,0,0,0-6.72-10.44,84.33,84.33,0,0,0-26.28-20.53C967.66,461.39,961.83,460,957,460.19ZM834.92,439.94c-5.14.81-11.61.87-17.61,3.4q-10.6,4.49-21.15,9.08a21.34,21.34,0,0,0-4.16,2.36,109.49,109.49,0,0,0-19.82,18,21.73,21.73,0,0,0-5.32,12.06A182.68,182.68,0,0,1,761.24,516a18.61,18.61,0,0,0,.8,12.22,93.06,93.06,0,0,1,3,9.1,71.27,71.27,0,0,0,5.67,15.24,22.63,22.63,0,0,1,2.9,11q-.09,13.42-.36,26.85a12,12,0,0,1-.62,3.77c-3.22,9.21-2.7,18.95-4.06,28.42a27.7,27.7,0,0,0,.18,5.74c.64,8.93,1.33,17.86,1.94,26.79a14,14,0,0,1-.21,4.76c-1.12,3.81-.66,7.61-.32,11.42.28,3.19.75,6.36,1,9.54a58.37,58.37,0,0,0,4.72,18.44,49.5,49.5,0,0,0,10.08,15,31.12,31.12,0,0,0,10.18,7.07c6,2.61,12.15,3.83,18.61,1.4a26.91,26.91,0,0,0,10.88-7.61A44,44,0,0,0,833.28,703c2.07-5,3.82-10.17,5.6-15.29a15.37,15.37,0,0,0,.59-3.78c.53-7.35,1.92-14.57,3.14-21.82,1.53-9.13,3.49-18.22,2.93-27.59-.27-4.56,1.2-8.83,2.54-13.11a60.31,60.31,0,0,0,2.53-9.22,80.07,80.07,0,0,1,3.3-14,18.34,18.34,0,0,0,.93-7.55,65.33,65.33,0,0,1,.06-13.41,27.08,27.08,0,0,0-.68-9.52,10.3,10.3,0,0,1-.26-4.7,53.2,53.2,0,0,0,1.26-12.37c0-5.11,1.75-9.39,6.09-12.36,3.29-2.27,5.26-5.5,6.89-9a44.91,44.91,0,0,0,4-13.71c1.13-9.53,2.78-19,6.2-28a18.19,18.19,0,0,0,.93-2.72,17.07,17.07,0,0,0-1.17-11.22,93.44,93.44,0,0,0-18.13-25.73,21.77,21.77,0,0,0-9.77-5.85A62.11,62.11,0,0,0,834.92,439.94ZM601.86,490.22a55.47,55.47,0,0,0,.67,9.39,80.63,80.63,0,0,1,2.2,16.07c0,2.2,1.59,4.12,3.12,4.25a4.65,4.65,0,0,0,4-2.14,30.36,30.36,0,0,0,3.15-4.78,33.12,33.12,0,0,0,3.66-13.76c.17-3.51.16-7,.61-10.52,1.19-9.17,2.58-18.31,4.37-27.4s3.21-18.23,2.66-27.57a52.15,52.15,0,0,0-6.87-23.66,12,12,0,0,0-1.91-2.06c-.49-.49-2.33-.27-2.57.32-1.48,3.51-3,7-2.9,11,.2,12.85-2.32,25.39-4.58,38-.85,4.7-1.47,9.57-3.19,14C602.16,476.8,601.85,482.4,601.86,490.22Z" transform="translate(633.29 608.2)"/><path d="M327.62,349.78c-2-.14-4.91-.16-7.75-.57a130,130,0,0,0-20.11-.94c-1.92,0-3.85,0-5.76.12-12.05,1-23.52-1.7-34.8-5.52a19.23,19.23,0,0,1-2.64-1.13c-3.12-1.61-6.26-3.18-9.3-4.93a31.4,31.4,0,0,1-6.32-4.26,38.85,38.85,0,0,0-9.51-6.38c-11.6-6-20.82-14.81-29.05-24.7-6.29-7.57-7-16.24-3.79-25.31A34.73,34.73,0,0,1,206,264a106.51,106.51,0,0,1,15.08-13.31c3.37-2.44,6.81-4.78,10.21-7.17a102.51,102.51,0,0,0,19.9-17.94c2-2.43,4.39-4.64,6.68-6.86,3.22-3.12,6.6-6.07,9.77-9.23,5-5,10.4-9.45,16.91-12.44a8,8,0,0,0,3.67-2.91c1.74-3.15,4.36-5.44,6.6-8.11a37.71,37.71,0,0,1,7.62-7.15,19.77,19.77,0,0,0,4.74-4.7,15.92,15.92,0,0,1,8.54-5.84,43.33,43.33,0,0,1,6.48-1.73c6.48-1,12,.68,16.18,6.05,1.76,2.27,3.55,4.53,5.25,6.85a25.41,25.41,0,0,1,4.87,19.93,38.2,38.2,0,0,0-.77,4.73c-.3,7.33-3.48,13.5-7.63,19.26-2.61,3.62-4.44,7.79-7.7,10.94-3.9,6.84-10,11.55-15.85,16.51-1,.83-2.08,1.5-3.05,2.33-4.12,3.56-2.7,10.7,2.51,12.53a20.56,20.56,0,0,0,3.7,1c4.73.77,9.45,1.64,14.22,2.13,6.61.68,12.23,3.48,17.44,7.37,3.58,2.67,7.15,5.38,10.79,8a47.85,47.85,0,0,1,13.17,13.76,18.62,18.62,0,0,1,1.82,16.57c-2,5.74-4,11.53-8.91,15.65a5.79,5.79,0,0,0-1.3,1.41c-3,5.28-7.91,8.08-13.38,10.28a66,66,0,0,0-9.33,4.92,17,17,0,0,1-9.06,2.63C333,349.35,330.72,349.59,327.62,349.78Z" transform="translate(633.29 608.2)"/><path d="M-529.5,470.12c.46-9.82.58-19.06,1.61-28.32,1.27-11.41,2.54-22.89,2.27-34.44a46.73,46.73,0,0,1,1.73-15.19,25.87,25.87,0,0,0,.92-4.7,142.61,142.61,0,0,1,4.11-22.59c1.75-6.12,2.58-12.5,3.74-18.78a56.3,56.3,0,0,1,3.34-11c1.09-2.66,2.2-5.32,3.12-8.05a43.76,43.76,0,0,1,6.76-12.61c3.87-5.08,7.3-10.48,11-15.67a58.7,58.7,0,0,0,11.1-31.22c.6-9.56,1.6-19.11,2.51-28.65a25.61,25.61,0,0,1,1.24-5.6c1.94-5.74,4-11.44,6-17.17a16,16,0,0,0,1.22-4.61c.14-4.35,1.93-8,4.14-11.58,4.67-7.63,9.07-15.42,13.77-23,3.7-6,9.27-8.74,16.28-8,8.11.9,15.63,3.54,21.7,9.22a31.5,31.5,0,0,0,8.55,6,26,26,0,0,1,6.41,4.16c5.27,4.65,10.48,9.39,15.49,14.33a42.08,42.08,0,0,1,11.64,20.61,3.67,3.67,0,0,1-.77,3.57,33,33,0,0,1-4.15,4,7.37,7.37,0,0,1-8.15.11,17.78,17.78,0,0,1-2.27-1.75c-5.09-4.86-10.24-9.67-15.19-14.66a55.44,55.44,0,0,0-8-6.82c-3.95-2.71-7.65-5.78-11.46-8.69a7.57,7.57,0,0,0-7.24-1.23,25.89,25.89,0,0,0-8.45,4.42,14.34,14.34,0,0,0-5,6.85c-3.1,9.07-6.47,18-9,27.29a70.65,70.65,0,0,1-2.11,7.37c-1.55,4-1.73,8-1.83,12.21-.3,13.75-1.11,27.48-4.81,40.85-.42,1.54-.85,3.08-1.29,4.61A36.34,36.34,0,0,1-471.66,319a40.7,40.7,0,0,1-6,4.81c-4.14,2.39-6.56,6-8.22,10.25-1,2.68-2.07,5.38-2.9,8.13a98.2,98.2,0,0,1-6.4,17,16,16,0,0,0-1.73,7.4c-.05,11.83-1.48,23.61-1.35,35.46.06,4.76-.8,9.54-1.24,14.31-.79,8.6-1.51,17.2-2.4,25.79A91.44,91.44,0,0,1-505.38,460a21.88,21.88,0,0,0-.9,8.51c.53,6.06,1.11,12.11,1.35,18.18a51.27,51.27,0,0,0,4.71,19.45,60.63,60.63,0,0,1,2.49,6.22,5.45,5.45,0,0,1-2.77,6.49,11.08,11.08,0,0,1-7.42,1.27,20.76,20.76,0,0,1-5.48-1.68c-5.83-3.05-10.62-7.31-12.5-13.81-2.39-8.3-4.44-16.69-3.65-25.49C-529.27,476-529.5,472.76-529.5,470.12Z" transform="translate(633.29 608.2)"/><path d="M727.1-120.87c0-4.9,0-8.73,0-12.57,0-2.24,0-4.48.16-6.71a22,22,0,0,1,.49-3.79c1.17-5.26,10.48-14.47,15.82-15.7a11,11,0,0,1,7.47.91,28.65,28.65,0,0,1,13.1,12.22c2.41,4.5,5,8.9,7.73,13.23a34.77,34.77,0,0,0,7,7.87,11.59,11.59,0,0,0,14.23.51c5.47-4.41,10.81-9,16.19-13.52,2-1.65,3.81-3.43,5.8-5a44.12,44.12,0,0,1,19-8.74,34.11,34.11,0,0,1,21.49,2.71,50,50,0,0,1,12.7,8.52c9,8.14,17.63,16.74,24.87,26.56,3,4.09,6.27,8,8.84,12.48a37.38,37.38,0,0,0,7.41,8.73,54.86,54.86,0,0,1,13.53,18.43,119.67,119.67,0,0,0,15.61,25.17c5.11,6.53,9.68,13.51,14.36,20.37a74.07,74.07,0,0,1,8.81,17,55.16,55.16,0,0,1,1.74,5.47c1,4.24.67,8.2-2.38,11.7-1.68,1.93-3,4.27-5.83,4.57-3.59.38-7.11.11-10-2.31a20.2,20.2,0,0,1-3.69-4.33,24.85,24.85,0,0,1-2-4.36,164.39,164.39,0,0,0-12.47-24.8c-.84-1.35-1.48-2.82-2.24-4.23-1.21-2.24-2.15-4.72-3.73-6.67-6.07-7.49-10.2-16.23-15.77-24-2.23-3.12-4.4-6.28-6.68-9.37a116.73,116.73,0,0,1-10.46-16c-3.65-7.08-8.13-13.73-12.44-20.44a50.26,50.26,0,0,0-6.5-8.28c-5-5-10.1-9.8-15.43-14.37-5.79-5-12.88-5.8-19.93-4.08-5.6,1.36-10.74,4.4-13.91,9.5a51,51,0,0,1-19.41,18.08c-5.33,2.9-10.37,6.36-16.21,8.25a27.42,27.42,0,0,1-4.61,1.2,8,8,0,0,1-7.07-2.16l-8.83-8.79c-1.59-1.58-3.1-3.24-4.81-4.67a20.83,20.83,0,0,0-4.07-2.49,5.86,5.86,0,0,0-7,1.61,34.26,34.26,0,0,0-3,4.86c-1.64,3.11-3,6.36-4.79,9.39a17.52,17.52,0,0,1-3.73,4.29c-1.57,1.37-3.48,1.35-5.39.49-2.53-1.14-4.28-3-4.53-5.75a85.69,85.69,0,0,1-.25-10.51C726.44-114.28,726.88-118.1,727.1-120.87Z" transform="translate(633.29 608.2)"/><path d="M813.78,33.51a18.61,18.61,0,0,1,9.13,1.55C833.67,39.7,843,46.25,850.18,55.58c1,1.27,1.81,2.66,2.88,3.84a66,66,0,0,0,6,6.15c6.33,5.39,10.69,5.42,17,.19,2-1.62,3.71-3.52,5.53-5.3,3-2.91,5.84-5.92,8.9-8.73,6.59-6,14.18-9.75,23.35-9.52,3.83.09,7.67.06,11.5.29A24.65,24.65,0,0,1,941,49.05c2.35,2.15,4.93,4,7.36,6.11,4.83,4.12,10.42,7.41,14.15,12.76,7.7,6.21,14.69,13.31,23.18,18.54a77.41,77.41,0,0,1,14,11.64c3.16,3.16,6.18,6.44,10.25,8.58a16.57,16.57,0,0,1,4.43,3.62,100.68,100.68,0,0,0,12.07,10.92c2.23,1.79,4.2,3.93,6.25,5.94,3.42,3.35,6.71,6.8,10.37,9.94,2.86,2.46,5.16,5.63,7.5,8.65,2,2.62.94,5.59-2.27,6.92-1.85.77-3.8,1-5.53,0a64.13,64.13,0,0,1-7-5c-8.64-7.11-17.51-13.9-26.76-20.21a137.34,137.34,0,0,1-17.21-13.72c-2.31-2.2-4.8-4.21-7.23-6.28-6.07-5.18-12.72-9.68-18.35-15.39a10.08,10.08,0,0,0-1.44-1.26,178.62,178.62,0,0,1-21.89-18.57c-5.37-5.19-12.28-8-19.18-10.59-6.15-2.27-12-1-17.19,3a42.36,42.36,0,0,0-5,4.46c-4.4,4.63-8.86,9.23-13,14.09a97.24,97.24,0,0,1-12.37,12,20.92,20.92,0,0,1-15.16,4.61,7.43,7.43,0,0,1-5.16-2.22c-1.76-1.86-3.53-3.69-5.23-5.6q-8.62-9.66-17.19-19.36c-2.34-2.65-4.81-5.11-8.13-6.57A5.26,5.26,0,0,0,819,67.15a20.5,20.5,0,0,0-3.32,4.62c-1.52,3.16-2.75,6.46-4,9.74-.69,1.78-1.19,3.64-1.81,5.45a11.13,11.13,0,0,1-7.08,7.29c-3,1-6,2.22-9.07,3a17.8,17.8,0,0,1-5.69.36c-4.17-.33-7.65-5.54-5.85-9.2,2-4,3.33-8.27,6-11.92,4.5-6,6.69-13,7.43-20.44a56.66,56.66,0,0,1,1.22-7.54c1.69-7.13,6.58-11.51,13-14.29A11.5,11.5,0,0,1,813.78,33.51Z" transform="translate(633.29 608.2)"/><path d="M-443.57,468.67c.33-3.33.51-5.88.85-8.41.42-3.17.84-6.35,1.47-9.48a47.43,47.43,0,0,0,.77-15.26,38.86,38.86,0,0,1,2.21-17.92,84.46,84.46,0,0,0,4.4-19.59c.37-3.5.95-7,1.45-10.45a10.92,10.92,0,0,1,.54-2.82c2.88-6.76,4.23-14.07,7.55-20.68,2-4,3.05-8.35,5.67-12.09,7.8-11.12,17.84-19,31.15-22.47a23.54,23.54,0,0,1,13.23.24c4,1.23,8,2.25,11.95,3.49,9.18,2.85,15.19,9.16,18.89,17.8a20.25,20.25,0,0,1,1.29,5.58,11.93,11.93,0,0,1-2.25,9.09c-2.38,3-5.08,5.71-7.69,8.5a2.21,2.21,0,0,1-3.32-.45c-1.2-2.61-2.38-5.22-3.5-7.87-2.95-7-8.87-10.66-15.34-13.68a8,8,0,0,0-2.81-.51c-4.27-.28-8.15,1.34-12.11,2.56a4.38,4.38,0,0,0-1.6,1c-5.12,4.84-9.94,9.81-12.35,16.78a95.16,95.16,0,0,0-5.41,29.09c-.06,2.55,0,5.11-.17,7.67a85.26,85.26,0,0,1-3,19.86c-1.19,3.95-1.67,8.12-2.54,12.17a31.31,31.31,0,0,1-1.53,5.52c-2.8,6.75-2.88,13.69-1.81,20.75.29,1.9.72,3.78.87,5.69.22,2.86.35,5.74.33,8.61a10.28,10.28,0,0,1-4.66,9c-1.86,1.25-3.66,2.59-5.55,3.79a5.24,5.24,0,0,1-6.2-.77c-2.32-2.62-4.68-5.23-6.84-8a10.27,10.27,0,0,1-2.09-4.22C-442.53,476.81-443,472.37-443.57,468.67Z" transform="translate(633.29 608.2)"/><path d="M1486-593.59a10.2,10.2,0,0,1-8.68-4.79,4.2,4.2,0,0,1,.3-4.43,36.41,36.41,0,0,1,4.79-4.43c2.32-1.69,5.56-1,7.66,1.2a7.45,7.45,0,0,1-1.46,11.4A15.63,15.63,0,0,1,1486-593.59Z" transform="translate(633.29 608.2)"/><path d="M-103,553.48c2.87,0,5.75.07,8.62,0a19.47,19.47,0,0,0,14.46-6.4c2.35-2.61,4.6-5.31,6.91-8a12,12,0,0,1,4.61-3.33,8,8,0,0,1,5.59-.55,24,24,0,0,1,4.46,1.69,10.43,10.43,0,0,1,5.87,9.22,55.84,55.84,0,0,1-1,13.33,34.64,34.64,0,0,0,.27,16.13,35.88,35.88,0,0,0,9.32,16.47c3.6,3.62,7.38,7.08,11,10.7a74.2,74.2,0,0,1,5.72,6.43,18.12,18.12,0,0,1,3.52,13.55,7.78,7.78,0,0,1-6.86,6.88,36.54,36.54,0,0,1-5.73,0A13.54,13.54,0,0,1-45.4,625c-1.28-1.42-2.44-3-3.81-4.27a4.71,4.71,0,0,0-6.86.25c-4,4.59-7.83,9.25-11.73,13.89-1,1.22-1.94,2.54-3,3.67a11.94,11.94,0,0,1-15,1.11,9.41,9.41,0,0,1-4.13-6.19c-1.34-7.72-1-15.23,2.2-22.52a51.72,51.72,0,0,0,2.29-7.28c1.44-5.24.35-10.23-2.24-14.76-3-5.34-7-9.81-13.21-11.82-4.28-1.39-7.9-4.09-11.57-6.67a13.19,13.19,0,0,1-5.6-9.6,24.87,24.87,0,0,1-.1-2.87c-.07-2.86,1.09-4.29,3.73-4.51,1.59-.13,3.18-.19,4.78-.26,1,0,1.91,0,2.87,0H-103Z" transform="translate(633.29 608.2)"/></svg>